<svg xmlns="http://www.w3.org/2000/svg" viewBox="7.0 45.5 241.9 241.9" xmlns:c2pa="http://c2pa.org/manifest"><metadata><c2pa:manifest>AAAWgmp1bWIAAAAeanVtZGMycGEAEQAQgAAAqgA4m3EDYzJwYQAAABZcanVtYgAAAEdqdW1kYzJtYQARABCAAACqADibcQN1cm46YzJwYTpkYmFjMGZmNS1iZjc2LTQxMzAtODg0Mi02Y2VlMGI4M2VjM2EAAAADl2p1bWIAAAApanVtZGMyYXMAEQAQgAAAqgA4m3EDYzJwYS5hc3NlcnRpb25zAAAAALxqdW1iAAAARGp1bWRjYm9yABEAEIAAAKoAOJtxE2MycGEuaW5ncmVkaWVudC52MwAAAAAYYzJzaHQlRdZbX2HLcYz7fpNfQgoAAABwY2JvcqNpZGM6Zm9ybWF0bWltYWdlL3N2Zyt4bWxqaW5zdGFuY2VJRHgseG1wOmlpZDoxZjIxMGJjYi01MGUyLTQ1N2UtOGY1MS1mODUyMGMxMzZmZjdscmVsYXRpb25zaGlwaHBhcmVudE9mAAAB4mp1bWIAAABBanVtZGNib3IAEQAQgAAAqgA4m3ETYzJwYS5hY3Rpb25zLnYyAAAAABhjMnNoBk+jvuP/gZa/bT/lyEh4PwAAAZljYm9yomdhY3Rpb25zgqJmYWN0aW9ua2MycGEub3BlbmVkanBhcmFtZXRlcnOha2luZ3JlZGllbnRzgaJjdXJseC1zZWxmI2p1bWJmPWMycGEuYXNzZXJ0aW9ucy9jMnBhLmluZ3JlZGllbnQudjNkaGFzaFggP0ngEsRSjXxqOumcbrbefJhxxQNPW29eWDyOn6OKZZCkZmFjdGlvbngdY29tLmFudGhyb3BpYy5jbGF1ZGUucHJvdmlkZWRqcGFyYW1ldGVyc6F4H2NvbS5hbnRocm9waWMub3JpZ2luLWNvbmZpZGVuY2VndW5rbm93bmtkZXNjcmlwdGlvbnhmQ2xhdWRlIHByb3ZpZGVkIHRoaXMgZmlsZSBhdCB0aGUgcmVxdWVzdCBvZiBhIHVzZXIgYW5kIG1heSBoYXZlIGNyZWF0ZWQgb3IgbW9kaWZpZWQgdGhlIGZpbGUgY29udGVudHMubXNvZnR3YXJlQWdlbnShZG5hbWVmQ2xhdWRlcmFsbEFjdGlvbnNJbmNsdWRlZPUAAADIanVtYgAAAEBqdW1kY2JvcgARABCAAACqADibcRNjMnBhLmhhc2guZGF0YQAAAAAYYzJzaDe0NUFGlSNHg5ukcUUNfOIAAACAY2JvcqVjYWxnZnNoYTI1NmNwYWRNAAAAAAAAAAAAAAAAAGRoYXNoWCCpm42vtbrds0qojXyiyFCw1e8zcBXK13VurjiSnm+s62RuYW1lbmp1bWJmIG1hbmlmZXN0amV4Y2x1c2lvbnOBomVzdGFydBiGZmxlbmd0aBkeBAAAAj5qdW1iAAAAJ2p1bWRjMmNsABEAEIAAAKoAOJtxA2MycGEuY2xhaW0udjIAAAACD2Nib3KlY2FsZ2ZzaGEyNTZpc2lnbmF0dXJleE1zZWxmI2p1bWJmPS9jMnBhL3VybjpjMnBhOmRiYWMwZmY1LWJmNzYtNDEzMC04ODQyLTZjZWUwYjgzZWMzYS9jMnBhLnNpZ25hdHVyZWppbnN0YW5jZUlEeCx4bXA6aWlkOjI3YmFhNmExLTg2NmItNDU5NS1hN2IzLTc4MjU5MWEzYjYzNHJjcmVhdGVkX2Fzc2VydGlvbnODomN1cmx4LXNlbGYjanVtYmY9YzJwYS5hc3NlcnRpb25zL2MycGEuaW5ncmVkaWVudC52M2RoYXNoWCA/SeASxFKNfGo66Zxutt58mHHFA09bb15YPI6fo4plkKJjdXJseCpzZWxmI2p1bWJmPWMycGEuYXNzZXJ0aW9ucy9jMnBhLmFjdGlvbnMudjJkaGFzaFgg77EEcYG3NfuEdohKdoN+GRPMmbWCo1/GXXazmP5IHEiiY3VybHgpc2VsZiNqdW1iZj1jMnBhLmFzc2VydGlvbnMvYzJwYS5oYXNoLmRhdGFkaGFzaFggnWDEPYPFKU3AgC1vp3zRj4WbDsr0tJehkKCiahHezpd0Y2xhaW1fZ2VuZXJhdG9yX2luZm+jZG5hbWVvQW50aHJvcGljIEZpbGVzZ3ZlcnNpb25lMS4wLjBrc3BlY1ZlcnNpb25lMi40LjAAABA4anVtYgAAAChqdW1kYzJjcwARABCAAACqADibcQNjMnBhLnNpZ25hdHVyZQAAABAIY2JvctKEWQISogEmGCFZAgowggIGMIIBjaADAgECAhRA5aAK7sI50L64g/oGQgU9Z1UTADAKBggqhkjOPQQDAzBJMRcwFQYDVQQKEw5BbnRocm9waWMsIFBCQzEuMCwGA1UEAxMlQW50aHJvcGljIENvbnRlbnQgQ3JlZGVudGlhbHMgUm9vdCBDQTAeFw0yNjA4MDcxODQzNTZaFw0yODA4MDYxOTQzNTZaMEQxFzAVBgNVBAoTDkFudGhyb3BpYywgUEJDMSkwJwYDVQQDEyBBbnRocm9waWMgQ2xhdWRlIENvbnRlbnQgU2lnbmluZzBZMBMGByqGSM49AgEGCCqGSM49AwEHA0IABJh6CmvLUBgFFNU0vUKlOVtE6djd17L5SuwX0LemFisBM3dkd/3cyjxFA3Qo5S46fX0/ihY0VZ7mfb9KF703t5OjWDBWMA4GA1UdDwEB/wQEAwIHgDAVBgNVHSUEDjAMBgorBgEEAYPoXgIBMAwGA1UdEwEB/wQCMAAwHwYDVR0jBBgwFoAUzlHiBIFOZFsj+OPEz5o+nMHXXMIwCgYIKoZIzj0EAwMDZwAwZAIwMXMdFJ4BetLLVY7ORuE9noqbbAZOZn/aArXyTwFAZfKrPzxF2vPoJNf1+UCdg1XGAjBwX1zd9WGqYkqmL5SFqw1QySjr1zJfpJM9+1rdDwSPLMOPOjKuiXjoU/pUUeG9RwmhY3BhZFkNngAAAAAAAAAAAAAAAAAAAAAAAAAAAAAAAAAAAAAAAAAAAAAAAAAAAAAAAAAAAAAAAAAAAAAAAAAAAAAAAAAAAAAAAAAAAAAAAAAAAAAAAAAAAAAAAAAAAAAAAAAAAAAAAAAAAAAAAAAAAAAAAAAAAAAAAAAAAAAAAAAAAAAAAAAAAAAAAAAAAAAAAAAAAAAAAAAAAAAAAAAAAAAAAAAAAAAAAAAAAAAAAAAAAAAAAAAAAAAAAAAAAAAAAAAAAAAAAAAAAAAAAAAAAAAAAAAAAAAAAAAAAAAAAAAAAAAAAAAAAAAAAAAAAAAAAAAAAAAAAAAAAAAAAAAAAAAAAAAAAAAAAAAAAAAAAAAAAAAAAAAAAAAAAAAAAAAAAAAAAAAAAAAAAAAAAAAAAAAAAAAAAAAAAAAAAAAAAAAAAAAAAAAAAAAAAAAAAAAAAAAAAAAAAAAAAAAAAAAAAAAAAAAAAAAAAAAAAAAAAAAAAAAAAAAAAAAAAAAAAAAAAAAAAAAAAAAAAAAAAAAAAAAAAAAAAAAAAAAAAAAAAAAAAAAAAAAAAAAAAAAAAAAAAAAAAAAAAAAAAAAAAAAAAAAAAAAAAAAAAAAAAAAAAAAAAAAAAAAAAAAAAAAAAAAAAAAAAAAAAAAAAAAAAAAAAAAAAAAAAAAAAAAAAAAAAAAAAAAAAAAAAAAAAAAAAAAAAAAAAAAAAAAAAAAAAAAAAAAAAAAAAAAAAAAAAAAAAAAAAAAAAAAAAAAAAAAAAAAAAAAAAAAAAAAAAAAAAAAAAAAAAAAAAAAAAAAAAAAAAAAAAAAAAAAAAAAAAAAAAAAAAAAAAAAAAAAAAAAAAAAAAAAAAAAAAAAAAAAAAAAAAAAAAAAAAAAAAAAAAAAAAAAAAAAAAAAAAAAAAAAAAAAAAAAAAAAAAAAAAAAAAAAAAAAAAAAAAAAAAAAAAAAAAAAAAAAAAAAAAAAAAAAAAAAAAAAAAAAAAAAAAAAAAAAAAAAAAAAAAAAAAAAAAAAAAAAAAAAAAAAAAAAAAAAAAAAAAAAAAAAAAAAAAAAAAAAAAAAAAAAAAAAAAAAAAAAAAAAAAAAAAAAAAAAAAAAAAAAAAAAAAAAAAAAAAAAAAAAAAAAAAAAAAAAAAAAAAAAAAAAAAAAAAAAAAAAAAAAAAAAAAAAAAAAAAAAAAAAAAAAAAAAAAAAAAAAAAAAAAAAAAAAAAAAAAAAAAAAAAAAAAAAAAAAAAAAAAAAAAAAAAAAAAAAAAAAAAAAAAAAAAAAAAAAAAAAAAAAAAAAAAAAAAAAAAAAAAAAAAAAAAAAAAAAAAAAAAAAAAAAAAAAAAAAAAAAAAAAAAAAAAAAAAAAAAAAAAAAAAAAAAAAAAAAAAAAAAAAAAAAAAAAAAAAAAAAAAAAAAAAAAAAAAAAAAAAAAAAAAAAAAAAAAAAAAAAAAAAAAAAAAAAAAAAAAAAAAAAAAAAAAAAAAAAAAAAAAAAAAAAAAAAAAAAAAAAAAAAAAAAAAAAAAAAAAAAAAAAAAAAAAAAAAAAAAAAAAAAAAAAAAAAAAAAAAAAAAAAAAAAAAAAAAAAAAAAAAAAAAAAAAAAAAAAAAAAAAAAAAAAAAAAAAAAAAAAAAAAAAAAAAAAAAAAAAAAAAAAAAAAAAAAAAAAAAAAAAAAAAAAAAAAAAAAAAAAAAAAAAAAAAAAAAAAAAAAAAAAAAAAAAAAAAAAAAAAAAAAAAAAAAAAAAAAAAAAAAAAAAAAAAAAAAAAAAAAAAAAAAAAAAAAAAAAAAAAAAAAAAAAAAAAAAAAAAAAAAAAAAAAAAAAAAAAAAAAAAAAAAAAAAAAAAAAAAAAAAAAAAAAAAAAAAAAAAAAAAAAAAAAAAAAAAAAAAAAAAAAAAAAAAAAAAAAAAAAAAAAAAAAAAAAAAAAAAAAAAAAAAAAAAAAAAAAAAAAAAAAAAAAAAAAAAAAAAAAAAAAAAAAAAAAAAAAAAAAAAAAAAAAAAAAAAAAAAAAAAAAAAAAAAAAAAAAAAAAAAAAAAAAAAAAAAAAAAAAAAAAAAAAAAAAAAAAAAAAAAAAAAAAAAAAAAAAAAAAAAAAAAAAAAAAAAAAAAAAAAAAAAAAAAAAAAAAAAAAAAAAAAAAAAAAAAAAAAAAAAAAAAAAAAAAAAAAAAAAAAAAAAAAAAAAAAAAAAAAAAAAAAAAAAAAAAAAAAAAAAAAAAAAAAAAAAAAAAAAAAAAAAAAAAAAAAAAAAAAAAAAAAAAAAAAAAAAAAAAAAAAAAAAAAAAAAAAAAAAAAAAAAAAAAAAAAAAAAAAAAAAAAAAAAAAAAAAAAAAAAAAAAAAAAAAAAAAAAAAAAAAAAAAAAAAAAAAAAAAAAAAAAAAAAAAAAAAAAAAAAAAAAAAAAAAAAAAAAAAAAAAAAAAAAAAAAAAAAAAAAAAAAAAAAAAAAAAAAAAAAAAAAAAAAAAAAAAAAAAAAAAAAAAAAAAAAAAAAAAAAAAAAAAAAAAAAAAAAAAAAAAAAAAAAAAAAAAAAAAAAAAAAAAAAAAAAAAAAAAAAAAAAAAAAAAAAAAAAAAAAAAAAAAAAAAAAAAAAAAAAAAAAAAAAAAAAAAAAAAAAAAAAAAAAAAAAAAAAAAAAAAAAAAAAAAAAAAAAAAAAAAAAAAAAAAAAAAAAAAAAAAAAAAAAAAAAAAAAAAAAAAAAAAAAAAAAAAAAAAAAAAAAAAAAAAAAAAAAAAAAAAAAAAAAAAAAAAAAAAAAAAAAAAAAAAAAAAAAAAAAAAAAAAAAAAAAAAAAAAAAAAAAAAAAAAAAAAAAAAAAAAAAAAAAAAAAAAAAAAAAAAAAAAAAAAAAAAAAAAAAAAAAAAAAAAAAAAAAAAAAAAAAAAAAAAAAAAAAAAAAAAAAAAAAAAAAAAAAAAAAAAAAAAAAAAAAAAAAAAAAAAAAAAAAAAAAAAAAAAAAAAAAAAAAAAAAAAAAAAAAAAAAAAAAAAAAAAAAAAAAAAAAAAAAAAAAAAAAAAAAAAAAAAAAAAAAAAAAAAAAAAAAAAAAAAAAAAAAAAAAAAAAAAAAAAAAAAAAAAAAAAAAAAAAAAAAAAAAAAAAAAAAAAAAAAAAAAAAAAAAAAAAAAAAAAAAAAAAAAAAAAAAAAAAAAAAAAAAAAAAAAAAAAAAAAAAAAAAAAAAAAAAAAAAAAAAAAAAAAAAAAAAAAAAAAAAAAAAAAAAAAAAAAAAAAAAAAAAAAAAAAAAAAAAAAAAAAAAAAAAAAAAAAAAAAAAAAAAAAAAAAAAAAAAAAAAAAAAAAAAAAAAAAAAAAAAAAAAAAAAAAAAAAAAAAAAAAAAAAAAAAAAAAAAAAAAAAAAAAAAAAAAAAAAAAAAAAAAAAAAAAAAAAAAAAAAAAAAAAAAAAAAAAAAAAAAAAAAAAAAAAAAAAAAAAAAAAAAAAAAAAAAAAAAAAAAAAAAAAAAAAAAAAAAAAAAAAAAAAAAAAAAAAAAAAAAAAAAAAAAAAAAAAAAAAAAAAAAAAAAAAAAAAAAAAAAAAAAAAAAAAAAAAAAAAAAAAAAAAAAAAAAAAAAAAAAAAAAAAAAAAAAAAAAAAAAAAAAAAAAAAAAAAAAAAAAAAAAAAAAAAAAAAAAAAAAAAAAAAAAAAAAAAAAAAAAAAAAAAAAAAAAAAAAAAAAAAAAAAAAAAAAAAAAAAAAAAAAAAAAAAAAAAAAAAAAAAAAAAAAAAAAAAAAAAAAAAAAAAAAAAAAAAAAAAAAAAAAAAAAAAAAAAAAAAAAAAAAAAAAAAAAAAAAAAAAAAAAAAAAAAAAAAAAAAAAAAAAAAAAAAAAAAAAAAAAAAAAAAAAAAAAAAAAAAAAAAAAAAAAAAAAAAAAAAAAAAAAAAAAAAAAAAAAAAAAAAAAAAAAAAAAAAAAAAAAAAAAAAAAAAAAAAAAAAAAAAAAAAAAAAAAAAAAAAAAAAAAAAAAAAAAAAAAAAAAAAAAAAAAAAAAAAAAAAAAAAAAAAAAAAAAAAAAAAAAAAAAAAAAAAAAAAAAAAAAAAAAAAAAAAAAAAAAAAAAAAAAAAAAAAAAAAAAAAAAAAAAAAAAAAAAAAAAAAAAAAAAAAAAAAAAAAAAAAAAAAAAAAAAAAAAAAAAAAAAAAAAAAAAAAAAAAAAAAAAAAAAAAAAAAAAAAAAAAAAAAAAAAAAAAAAAAAAAAAAAAAAAAAAAAAAAAAAAAAAAAAAAAAAAAAAAAAAAAAAAAAAAAAAAAAAAAAAAAAAAAAAAAAAAAAAAAAAAAAAAAAAAAAAAAAAAAAAAAAAAAAAAAAAAAAAAAAAAAAAAAAAAAAAAAAAAAAAAAAAAAAAAAAAAAAAAAAAAAAAAAAAAAAAAAAAAAAAAAAAAAAAAAAAAAAAAAAAAAAAAAAAAAAAAAAAAAAAAAAAAAAAAAAAAAAAAAAAAAAAAAAAAAAAAAAAAAAAAAAAAAAAAAAAAAAAAAAAAAAAAAAAAAAAAAAAAAAAAAAAAAAAAAAAAAAAAAAAAAAAAAAAAAAAAAAAAAAAAAAAAAAAAAAAAAAAAAAAAAAAAAAAAAAAAAAAAAAAAAAAAAAAAAAAAAAAAAAAAAAAAAAAAAAAAAAAAAAAAAAAAAAAAAAAAAAAAAAAAAAAAAAAAAAAAAAAAAAAAAAAAAAAAAAAAAAAAAAAAAAAPZYQBPEI1kVuCLVPq7Z8Op9w2JsdABCV3S45O4JuPWgKtKyKKgKCTkBX6o3cB2g6Ux1nzAOhnUZYIL6TjP0jQPqjk4=</c2pa:manifest></metadata><ellipse cx="128" cy="191" rx="112" ry="36" fill="#B9CCC1"/><ellipse cx="128" cy="186" rx="112" ry="36" fill="#E9F0EC"/><ellipse cx="128" cy="187" rx="98" ry="27" fill="#FAFBFB" stroke="#D3E1D9" stroke-width="2"/><circle cx="196" cy="140" r="34" fill="#6B3F1F"/><circle cx="196" cy="140" r="30" fill="#8A5A2D"/><ellipse cx="196" cy="140" rx="24" ry="24" fill="#FFFFFF"/><circle cx="196" cy="140" r="13" fill="#E9F0EC"/><path d="M184 128 Q192 120 204 122" fill="none" stroke="#fff" stroke-width="3" stroke-linecap="round"/><path d="M38 196 Q34.199999999999996 174.0 53.2 165.2 Q49.400000000000006 152 68.4 149.8 Q76 138.8 83.6 149.8 Q102.6 152 98.8 165.2 Q117.80000000000001 174.0 114 196 Q76 204.8 38 196Z" fill="#F6E7C4"/><path d="M53.2 165.2 Q49.400000000000006 152 68.4 149.8 Q76 138.8 83.6 149.8 Q102.6 152 98.8 165.2 Q76 171.8 53.2 165.2Z" fill="#B8641A"/><path d="M89.3 169.6 Q115.9 178.4 114 196 Q95.0 202.6 79.8 196Z" fill="#D8C08E" opacity=".75"/><ellipse cx="48.2" cy="183.2" rx="4.4" ry="1.7" fill="#FFF8E6" transform="rotate(100 48.2 183.2)"/><ellipse cx="55.5" cy="185.7" rx="4.4" ry="1.7" fill="#FFF8E6" transform="rotate(28 55.5 185.7)"/><ellipse cx="78.0" cy="162.2" rx="4.4" ry="1.7" fill="#FFF8E6" transform="rotate(35 78.0 162.2)"/><ellipse cx="55.9" cy="161.1" rx="4.4" ry="1.7" fill="#FFF8E6" transform="rotate(169 55.9 161.1)"/><ellipse cx="51.0" cy="179.1" rx="4.4" ry="1.7" fill="#FFF8E6" transform="rotate(114 51.0 179.1)"/><ellipse cx="77.5" cy="180.0" rx="4.4" ry="1.7" fill="#FFF8E6" transform="rotate(151 77.5 180.0)"/><ellipse cx="52.8" cy="186.5" rx="4.4" ry="1.7" fill="#FFF8E6" transform="rotate(103 52.8 186.5)"/><ellipse cx="67.0" cy="180.0" rx="4.4" ry="1.7" fill="#FFF8E6" transform="rotate(100 67.0 180.0)"/><ellipse cx="68.3" cy="153.6" rx="4.4" ry="1.7" fill="#FFF8E6" transform="rotate(53 68.3 153.6)"/><ellipse cx="88.8" cy="172.5" rx="4.4" ry="1.7" fill="#FFF8E6" transform="rotate(169 88.8 172.5)"/><ellipse cx="78.7" cy="153.6" rx="4.4" ry="1.7" fill="#FFF8E6" transform="rotate(46 78.7 153.6)"/><ellipse cx="67.8" cy="180.0" rx="4.4" ry="1.7" fill="#FFF8E6" transform="rotate(96 67.8 180.0)"/><ellipse cx="49.2" cy="161.3" rx="4.4" ry="1.7" fill="#FFF8E6" transform="rotate(112 49.2 161.3)"/><ellipse cx="84.6" cy="179.5" rx="4.4" ry="1.7" fill="#FFF8E6" transform="rotate(110 84.6 179.5)"/><ellipse cx="89.1" cy="180.4" rx="4.4" ry="1.7" fill="#FFF8E6" transform="rotate(164 89.1 180.4)"/><ellipse cx="94.2" cy="170.2" rx="4.4" ry="1.7" fill="#FFF8E6" transform="rotate(67 94.2 170.2)"/><path d="M104 198 Q99.8 172.0 120.8 161.6 Q116.6 146 137.6 143.4 Q146 130.39999999999998 154.4 143.4 Q175.4 146 171.2 161.6 Q192.2 172.0 188 198 Q146 208.4 104 198Z" fill="#F6E7C4"/><path d="M120.8 161.6 Q116.6 146 137.6 143.4 Q146 130.39999999999998 154.4 143.4 Q175.4 146 171.2 161.6 Q146 169.4 120.8 161.6Z" fill="#B8641A"/><path d="M160.7 166.8 Q190.1 177.2 188 198 Q167.0 205.8 150.2 198Z" fill="#D8C08E" opacity=".75"/><ellipse cx="135.7" cy="173.7" rx="4.4" ry="1.7" fill="#FFF8E6" transform="rotate(101 135.7 173.7)"/><ellipse cx="144.9" cy="160.5" rx="4.4" ry="1.7" fill="#FFF8E6" transform="rotate(80 144.9 160.5)"/><ellipse cx="175.1" cy="147.0" rx="4.4" ry="1.7" fill="#FFF8E6" transform="rotate(24 175.1 147.0)"/><ellipse cx="164.3" cy="174.9" rx="4.4" ry="1.7" fill="#FFF8E6" transform="rotate(45 164.3 174.9)"/><ellipse cx="149.8" cy="148.7" rx="4.4" ry="1.7" fill="#FFF8E6" transform="rotate(75 149.8 148.7)"/><ellipse cx="120.4" cy="179.6" rx="4.4" ry="1.7" fill="#FFF8E6" transform="rotate(153 120.4 179.6)"/><ellipse cx="138.1" cy="147.8" rx="4.4" ry="1.7" fill="#FFF8E6" transform="rotate(102 138.1 147.8)"/><ellipse cx="132.4" cy="174.9" rx="4.4" ry="1.7" fill="#FFF8E6" transform="rotate(50 132.4 174.9)"/><ellipse cx="121.7" cy="179.2" rx="4.4" ry="1.7" fill="#FFF8E6" transform="rotate(85 121.7 179.2)"/><ellipse cx="142.5" cy="154.8" rx="4.4" ry="1.7" fill="#FFF8E6" transform="rotate(143 142.5 154.8)"/><ellipse cx="159.5" cy="176.5" rx="4.4" ry="1.7" fill="#FFF8E6" transform="rotate(163 159.5 176.5)"/><ellipse cx="122.0" cy="179.5" rx="4.4" ry="1.7" fill="#FFF8E6" transform="rotate(85 122.0 179.5)"/><ellipse cx="124.7" cy="146.4" rx="4.4" ry="1.7" fill="#FFF8E6" transform="rotate(38 124.7 146.4)"/><ellipse cx="144.5" cy="166.9" rx="4.4" ry="1.7" fill="#FFF8E6" transform="rotate(131 144.5 166.9)"/><ellipse cx="132.0" cy="172.1" rx="4.4" ry="1.7" fill="#FFF8E6" transform="rotate(156 132.0 172.1)"/><ellipse cx="145.4" cy="163.0" rx="4.4" ry="1.7" fill="#FFF8E6" transform="rotate(28 145.4 163.0)"/><path d="M82 166 Q79.0 149.0 94.0 142.2 Q91.0 132 106.0 130.3 Q112 121.8 118.0 130.3 Q133.0 132 130.0 142.2 Q145.0 149.0 142 166 Q112 172.8 82 166Z" fill="#F6E7C4"/><path d="M94.0 142.2 Q91.0 132 106.0 130.3 Q112 121.8 118.0 130.3 Q133.0 132 130.0 142.2 Q112 147.3 94.0 142.2Z" fill="#B8641A"/><path d="M122.5 145.6 Q143.5 152.4 142 166 Q127.0 171.1 115.0 166Z" fill="#D8C08E" opacity=".75"/><ellipse cx="111.3" cy="137.5" rx="4.4" ry="1.7" fill="#FFF8E6" transform="rotate(155 111.3 137.5)"/><ellipse cx="120.7" cy="132.7" rx="4.4" ry="1.7" fill="#FFF8E6" transform="rotate(6 120.7 132.7)"/><ellipse cx="101.0" cy="138.4" rx="4.4" ry="1.7" fill="#FFF8E6" transform="rotate(120 101.0 138.4)"/><ellipse cx="105.2" cy="158.9" rx="4.4" ry="1.7" fill="#FFF8E6" transform="rotate(96 105.2 158.9)"/><ellipse cx="115.7" cy="147.1" rx="4.4" ry="1.7" fill="#FFF8E6" transform="rotate(11 115.7 147.1)"/><ellipse cx="95.4" cy="143.8" rx="4.4" ry="1.7" fill="#FFF8E6" transform="rotate(157 95.4 143.8)"/><ellipse cx="91.7" cy="142.5" rx="4.4" ry="1.7" fill="#FFF8E6" transform="rotate(52 91.7 142.5)"/><ellipse cx="125.0" cy="133.5" rx="4.4" ry="1.7" fill="#FFF8E6" transform="rotate(76 125.0 133.5)"/><ellipse cx="120.5" cy="144.1" rx="4.4" ry="1.7" fill="#FFF8E6" transform="rotate(142 120.5 144.1)"/><ellipse cx="120.8" cy="144.9" rx="4.4" ry="1.7" fill="#FFF8E6" transform="rotate(128 120.8 144.9)"/><ellipse cx="107.6" cy="144.9" rx="4.4" ry="1.7" fill="#FFF8E6" transform="rotate(157 107.6 144.9)"/><ellipse cx="110.3" cy="139.7" rx="4.4" ry="1.7" fill="#FFF8E6" transform="rotate(119 110.3 139.7)"/><ellipse cx="104.2" cy="149.1" rx="4.4" ry="1.7" fill="#FFF8E6" transform="rotate(133 104.2 149.1)"/><ellipse cx="124.7" cy="138.9" rx="4.4" ry="1.7" fill="#FFF8E6" transform="rotate(74 124.7 138.9)"/><ellipse cx="120.6" cy="143.4" rx="4.4" ry="1.7" fill="#FFF8E6" transform="rotate(42 120.6 143.4)"/><ellipse cx="91.4" cy="141.0" rx="4.4" ry="1.7" fill="#FFF8E6" transform="rotate(108 91.4 141.0)"/><circle cx="60" cy="178" r="2" fill="#E9F0EC"/></svg>