<svg xmlns="http://www.w3.org/2000/svg" viewBox="7.0 50.8 241.9 241.9" xmlns:c2pa="http://c2pa.org/manifest"><metadata><c2pa:manifest>AAAWgmp1bWIAAAAeanVtZGMycGEAEQAQgAAAqgA4m3EDYzJwYQAAABZcanVtYgAAAEdqdW1kYzJtYQARABCAAACqADibcQN1cm46YzJwYToyNzMzZjg2Yi0yYmY1LTQxZTItODIxYy04NzY5MmU0MWJkYjUAAAADl2p1bWIAAAApanVtZGMyYXMAEQAQgAAAqgA4m3EDYzJwYS5hc3NlcnRpb25zAAAAALxqdW1iAAAARGp1bWRjYm9yABEAEIAAAKoAOJtxE2MycGEuaW5ncmVkaWVudC52MwAAAAAYYzJzaAPK7WnU1wbA10xO1Zfe2ekAAABwY2JvcqNpZGM6Zm9ybWF0bWltYWdlL3N2Zyt4bWxqaW5zdGFuY2VJRHgseG1wOmlpZDozYjVmYjhlOS04NmE3LTQ4MGYtOGM2YS1lNWE2N2M4NzNjNjVscmVsYXRpb25zaGlwaHBhcmVudE9mAAAB4mp1bWIAAABBanVtZGNib3IAEQAQgAAAqgA4m3ETYzJwYS5hY3Rpb25zLnYyAAAAABhjMnNokOchR9Xd5DHh7e6quelxNgAAAZljYm9yomdhY3Rpb25zgqJmYWN0aW9ua2MycGEub3BlbmVkanBhcmFtZXRlcnOha2luZ3JlZGllbnRzgaJjdXJseC1zZWxmI2p1bWJmPWMycGEuYXNzZXJ0aW9ucy9jMnBhLmluZ3JlZGllbnQudjNkaGFzaFggOv0nB9PTZLACHEgRwkF/lpN5KXBYj7Sjya2P9fUOyEWkZmFjdGlvbngdY29tLmFudGhyb3BpYy5jbGF1ZGUucHJvdmlkZWRqcGFyYW1ldGVyc6F4H2NvbS5hbnRocm9waWMub3JpZ2luLWNvbmZpZGVuY2VndW5rbm93bmtkZXNjcmlwdGlvbnhmQ2xhdWRlIHByb3ZpZGVkIHRoaXMgZmlsZSBhdCB0aGUgcmVxdWVzdCBvZiBhIHVzZXIgYW5kIG1heSBoYXZlIGNyZWF0ZWQgb3IgbW9kaWZpZWQgdGhlIGZpbGUgY29udGVudHMubXNvZnR3YXJlQWdlbnShZG5hbWVmQ2xhdWRlcmFsbEFjdGlvbnNJbmNsdWRlZPUAAADIanVtYgAAAEBqdW1kY2JvcgARABCAAACqADibcRNjMnBhLmhhc2guZGF0YQAAAAAYYzJzaPZt+6fQBwQge47DcfkX/E0AAACAY2JvcqVjYWxnZnNoYTI1NmNwYWRNAAAAAAAAAAAAAAAAAGRoYXNoWCBwW+0oMThce/AmjJQ3Z0FpuQt7mJlGbs9xTznRNSTje2RuYW1lbmp1bWJmIG1hbmlmZXN0amV4Y2x1c2lvbnOBomVzdGFydBiGZmxlbmd0aBkeBAAAAj5qdW1iAAAAJ2p1bWRjMmNsABEAEIAAAKoAOJtxA2MycGEuY2xhaW0udjIAAAACD2Nib3KlY2FsZ2ZzaGEyNTZpc2lnbmF0dXJleE1zZWxmI2p1bWJmPS9jMnBhL3VybjpjMnBhOjI3MzNmODZiLTJiZjUtNDFlMi04MjFjLTg3NjkyZTQxYmRiNS9jMnBhLnNpZ25hdHVyZWppbnN0YW5jZUlEeCx4bXA6aWlkOmNkMTk0NTE1LWJlM2QtNGQzYy04MTQ0LWFkN2JlZGJkY2U0OHJjcmVhdGVkX2Fzc2VydGlvbnODomN1cmx4LXNlbGYjanVtYmY9YzJwYS5hc3NlcnRpb25zL2MycGEuaW5ncmVkaWVudC52M2RoYXNoWCA6/ScH09NksAIcSBHCQX+Wk3kpcFiPtKPJrY/19Q7IRaJjdXJseCpzZWxmI2p1bWJmPWMycGEuYXNzZXJ0aW9ucy9jMnBhLmFjdGlvbnMudjJkaGFzaFggrU1Te3W1799I6O0tL/jexnU5iXVnXW+3DcrhXVPIIEmiY3VybHgpc2VsZiNqdW1iZj1jMnBhLmFzc2VydGlvbnMvYzJwYS5oYXNoLmRhdGFkaGFzaFggJIkj+zGpCWvqsIAH+vNyvUnztGCD8aDv3PL/Z+qtFcl0Y2xhaW1fZ2VuZXJhdG9yX2luZm+jZG5hbWVvQW50aHJvcGljIEZpbGVzZ3ZlcnNpb25lMS4wLjBrc3BlY1ZlcnNpb25lMi40LjAAABA4anVtYgAAAChqdW1kYzJjcwARABCAAACqADibcQNjMnBhLnNpZ25hdHVyZQAAABAIY2JvctKEWQISogEmGCFZAgowggIGMIIBjaADAgECAhRA5aAK7sI50L64g/oGQgU9Z1UTADAKBggqhkjOPQQDAzBJMRcwFQYDVQQKEw5BbnRocm9waWMsIFBCQzEuMCwGA1UEAxMlQW50aHJvcGljIENvbnRlbnQgQ3JlZGVudGlhbHMgUm9vdCBDQTAeFw0yNjA4MDcxODQzNTZaFw0yODA4MDYxOTQzNTZaMEQxFzAVBgNVBAoTDkFudGhyb3BpYywgUEJDMSkwJwYDVQQDEyBBbnRocm9waWMgQ2xhdWRlIENvbnRlbnQgU2lnbmluZzBZMBMGByqGSM49AgEGCCqGSM49AwEHA0IABJh6CmvLUBgFFNU0vUKlOVtE6djd17L5SuwX0LemFisBM3dkd/3cyjxFA3Qo5S46fX0/ihY0VZ7mfb9KF703t5OjWDBWMA4GA1UdDwEB/wQEAwIHgDAVBgNVHSUEDjAMBgorBgEEAYPoXgIBMAwGA1UdEwEB/wQCMAAwHwYDVR0jBBgwFoAUzlHiBIFOZFsj+OPEz5o+nMHXXMIwCgYIKoZIzj0EAwMDZwAwZAIwMXMdFJ4BetLLVY7ORuE9noqbbAZOZn/aArXyTwFAZfKrPzxF2vPoJNf1+UCdg1XGAjBwX1zd9WGqYkqmL5SFqw1QySjr1zJfpJM9+1rdDwSPLMOPOjKuiXjoU/pUUeG9RwmhY3BhZFkNngAAAAAAAAAAAAAAAAAAAAAAAAAAAAAAAAAAAAAAAAAAAAAAAAAAAAAAAAAAAAAAAAAAAAAAAAAAAAAAAAAAAAAAAAAAAAAAAAAAAAAAAAAAAAAAAAAAAAAAAAAAAAAAAAAAAAAAAAAAAAAAAAAAAAAAAAAAAAAAAAAAAAAAAAAAAAAAAAAAAAAAAAAAAAAAAAAAAAAAAAAAAAAAAAAAAAAAAAAAAAAAAAAAAAAAAAAAAAAAAAAAAAAAAAAAAAAAAAAAAAAAAAAAAAAAAAAAAAAAAAAAAAAAAAAAAAAAAAAAAAAAAAAAAAAAAAAAAAAAAAAAAAAAAAAAAAAAAAAAAAAAAAAAAAAAAAAAAAAAAAAAAAAAAAAAAAAAAAAAAAAAAAAAAAAAAAAAAAAAAAAAAAAAAAAAAAAAAAAAAAAAAAAAAAAAAAAAAAAAAAAAAAAAAAAAAAAAAAAAAAAAAAAAAAAAAAAAAAAAAAAAAAAAAAAAAAAAAAAAAAAAAAAAAAAAAAAAAAAAAAAAAAAAAAAAAAAAAAAAAAAAAAAAAAAAAAAAAAAAAAAAAAAAAAAAAAAAAAAAAAAAAAAAAAAAAAAAAAAAAAAAAAAAAAAAAAAAAAAAAAAAAAAAAAAAAAAAAAAAAAAAAAAAAAAAAAAAAAAAAAAAAAAAAAAAAAAAAAAAAAAAAAAAAAAAAAAAAAAAAAAAAAAAAAAAAAAAAAAAAAAAAAAAAAAAAAAAAAAAAAAAAAAAAAAAAAAAAAAAAAAAAAAAAAAAAAAAAAAAAAAAAAAAAAAAAAAAAAAAAAAAAAAAAAAAAAAAAAAAAAAAAAAAAAAAAAAAAAAAAAAAAAAAAAAAAAAAAAAAAAAAAAAAAAAAAAAAAAAAAAAAAAAAAAAAAAAAAAAAAAAAAAAAAAAAAAAAAAAAAAAAAAAAAAAAAAAAAAAAAAAAAAAAAAAAAAAAAAAAAAAAAAAAAAAAAAAAAAAAAAAAAAAAAAAAAAAAAAAAAAAAAAAAAAAAAAAAAAAAAAAAAAAAAAAAAAAAAAAAAAAAAAAAAAAAAAAAAAAAAAAAAAAAAAAAAAAAAAAAAAAAAAAAAAAAAAAAAAAAAAAAAAAAAAAAAAAAAAAAAAAAAAAAAAAAAAAAAAAAAAAAAAAAAAAAAAAAAAAAAAAAAAAAAAAAAAAAAAAAAAAAAAAAAAAAAAAAAAAAAAAAAAAAAAAAAAAAAAAAAAAAAAAAAAAAAAAAAAAAAAAAAAAAAAAAAAAAAAAAAAAAAAAAAAAAAAAAAAAAAAAAAAAAAAAAAAAAAAAAAAAAAAAAAAAAAAAAAAAAAAAAAAAAAAAAAAAAAAAAAAAAAAAAAAAAAAAAAAAAAAAAAAAAAAAAAAAAAAAAAAAAAAAAAAAAAAAAAAAAAAAAAAAAAAAAAAAAAAAAAAAAAAAAAAAAAAAAAAAAAAAAAAAAAAAAAAAAAAAAAAAAAAAAAAAAAAAAAAAAAAAAAAAAAAAAAAAAAAAAAAAAAAAAAAAAAAAAAAAAAAAAAAAAAAAAAAAAAAAAAAAAAAAAAAAAAAAAAAAAAAAAAAAAAAAAAAAAAAAAAAAAAAAAAAAAAAAAAAAAAAAAAAAAAAAAAAAAAAAAAAAAAAAAAAAAAAAAAAAAAAAAAAAAAAAAAAAAAAAAAAAAAAAAAAAAAAAAAAAAAAAAAAAAAAAAAAAAAAAAAAAAAAAAAAAAAAAAAAAAAAAAAAAAAAAAAAAAAAAAAAAAAAAAAAAAAAAAAAAAAAAAAAAAAAAAAAAAAAAAAAAAAAAAAAAAAAAAAAAAAAAAAAAAAAAAAAAAAAAAAAAAAAAAAAAAAAAAAAAAAAAAAAAAAAAAAAAAAAAAAAAAAAAAAAAAAAAAAAAAAAAAAAAAAAAAAAAAAAAAAAAAAAAAAAAAAAAAAAAAAAAAAAAAAAAAAAAAAAAAAAAAAAAAAAAAAAAAAAAAAAAAAAAAAAAAAAAAAAAAAAAAAAAAAAAAAAAAAAAAAAAAAAAAAAAAAAAAAAAAAAAAAAAAAAAAAAAAAAAAAAAAAAAAAAAAAAAAAAAAAAAAAAAAAAAAAAAAAAAAAAAAAAAAAAAAAAAAAAAAAAAAAAAAAAAAAAAAAAAAAAAAAAAAAAAAAAAAAAAAAAAAAAAAAAAAAAAAAAAAAAAAAAAAAAAAAAAAAAAAAAAAAAAAAAAAAAAAAAAAAAAAAAAAAAAAAAAAAAAAAAAAAAAAAAAAAAAAAAAAAAAAAAAAAAAAAAAAAAAAAAAAAAAAAAAAAAAAAAAAAAAAAAAAAAAAAAAAAAAAAAAAAAAAAAAAAAAAAAAAAAAAAAAAAAAAAAAAAAAAAAAAAAAAAAAAAAAAAAAAAAAAAAAAAAAAAAAAAAAAAAAAAAAAAAAAAAAAAAAAAAAAAAAAAAAAAAAAAAAAAAAAAAAAAAAAAAAAAAAAAAAAAAAAAAAAAAAAAAAAAAAAAAAAAAAAAAAAAAAAAAAAAAAAAAAAAAAAAAAAAAAAAAAAAAAAAAAAAAAAAAAAAAAAAAAAAAAAAAAAAAAAAAAAAAAAAAAAAAAAAAAAAAAAAAAAAAAAAAAAAAAAAAAAAAAAAAAAAAAAAAAAAAAAAAAAAAAAAAAAAAAAAAAAAAAAAAAAAAAAAAAAAAAAAAAAAAAAAAAAAAAAAAAAAAAAAAAAAAAAAAAAAAAAAAAAAAAAAAAAAAAAAAAAAAAAAAAAAAAAAAAAAAAAAAAAAAAAAAAAAAAAAAAAAAAAAAAAAAAAAAAAAAAAAAAAAAAAAAAAAAAAAAAAAAAAAAAAAAAAAAAAAAAAAAAAAAAAAAAAAAAAAAAAAAAAAAAAAAAAAAAAAAAAAAAAAAAAAAAAAAAAAAAAAAAAAAAAAAAAAAAAAAAAAAAAAAAAAAAAAAAAAAAAAAAAAAAAAAAAAAAAAAAAAAAAAAAAAAAAAAAAAAAAAAAAAAAAAAAAAAAAAAAAAAAAAAAAAAAAAAAAAAAAAAAAAAAAAAAAAAAAAAAAAAAAAAAAAAAAAAAAAAAAAAAAAAAAAAAAAAAAAAAAAAAAAAAAAAAAAAAAAAAAAAAAAAAAAAAAAAAAAAAAAAAAAAAAAAAAAAAAAAAAAAAAAAAAAAAAAAAAAAAAAAAAAAAAAAAAAAAAAAAAAAAAAAAAAAAAAAAAAAAAAAAAAAAAAAAAAAAAAAAAAAAAAAAAAAAAAAAAAAAAAAAAAAAAAAAAAAAAAAAAAAAAAAAAAAAAAAAAAAAAAAAAAAAAAAAAAAAAAAAAAAAAAAAAAAAAAAAAAAAAAAAAAAAAAAAAAAAAAAAAAAAAAAAAAAAAAAAAAAAAAAAAAAAAAAAAAAAAAAAAAAAAAAAAAAAAAAAAAAAAAAAAAAAAAAAAAAAAAAAAAAAAAAAAAAAAAAAAAAAAAAAAAAAAAAAAAAAAAAAAAAAAAAAAAAAAAAAAAAAAAAAAAAAAAAAAAAAAAAAAAAAAAAAAAAAAAAAAAAAAAAAAAAAAAAAAAAAAAAAAAAAAAAAAAAAAAAAAAAAAAAAAAAAAAAAAAAAAAAAAAAAAAAAAAAAAAAAAAAAAAAAAAAAAAAAAAAAAAAAAAAAAAAAAAAAAAAAAAAAAAAAAAAAAAAAAAAAAAAAAAAAAAAAAAAAAAAAAAAAAAAAAAAAAAAAAAAAAAAAAAAAAAAAAAAAAAAAAAAAAAAAAAAAAAAAAAAAAAAAAAAAAAAAAAAAAAAAAAAAAAAAAAAAAAAAAAAAAAAAAAAAAAAAAAAAAAAAAAAAAAAAAAAAAAAAAAAAAAAAAAAAAAAAAAAAAAAAAAAAAAAAAAAAAAAAAAAAAAAAAAAAAAAAAAAAAAAAAAAAAAAAAAAAAAAAAAAAAAAAAAAAAAAAAAAAAAAAAAAAAAAAAAAAAAAAAAAAAAAAAAAAAAAAAAAAAAAAAAAAAAAAAAAAAAAAAAAAAAAAAAAAAAAAAAAAAAAAAAAAAAAAAAAAAAAAAAAAAAAAAAAAAAAAAAAAAAAAAAAAAAAAAAAAAAAAAAAAAAAAAAAAAAAAAAAAAAAAAAAAAAAAAAAAAAAAAAAAAAAAAAAAAAAAAAAAAAAAAAAAAAAAAAAAAAAAAAAAAAAAAAAAAAAAAAAAAAAAAAAAAAAAAAAAAAAAAAAAAAAAAAAAAAAAAAAAAAAAAAAAAAAAAAAAAAAAAAAAAAAAAAAAAAAAAAAAAAAAAAAAAAAAAAAAAAAAAAAAAAAAAAAAAAAAAAAAAAAAAAAAAAAAAAAAAAAAAAAAAAAAAAAAAAAAAAAAAAAAAAAAAAAAAAAAAAAAAAAAAAAAAAAAAAAAAAAAAAAAAAAAAAAAAAAAAAAAAAAAAAAAAAAAAAAAAAAAAAAAAAAAAAAAAAAAAAAAAAAAAAAAAAAAAAAAAAAAAAAAAAAAAAAAAAAAAAAAAAAAAAAAAAAAAAAAAAAAAAAAAAAAAAAAAAAAAAAAAAAAAAAAAAAAAAAAAAAAAAAAAAAAAAAAAAAAAAAAAAAAAAAAAAAAAAAAAAAAAAAAAAAAAAAAAAAAAAAAAAAAAAAAAAAAAAAAAAAAAAAAAAAAAAAAAAAAAAAAAAAAAAAAAAAAAAAAAAAAAAAAAAAAAAAAAAAAAAAAAAAAAAAAAAAAAAAAAAAAAAAAAAAAAAPZYQOXFTHYX2ZJ/EK9w+S9Dr4IXPWANB/eCwzxxiV0qJaRyCPa25MszCYCmWFUXFMBcesoFNvg1FAyQbrzfhPMuijI=</c2pa:manifest></metadata><ellipse cx="128" cy="191" rx="112" ry="36" fill="#B9CCC1"/><ellipse cx="128" cy="186" rx="112" ry="36" fill="#E9F0EC"/><ellipse cx="128" cy="187" rx="98" ry="27" fill="#FAFBFB" stroke="#D3E1D9" stroke-width="2"/><ellipse cx="80" cy="166" rx="46" ry="18" fill="#5A1E14"/><path d="M36 166 Q40 128 84 128 Q124 128 126 166Z" fill="#7C2E20"/><ellipse cx="89.0" cy="166.0" rx="6" ry="3.7199999999999998" fill="#8C3323" transform="rotate(38 89.0 166.0)"/><ellipse cx="87.5" cy="164.8" rx="2.4000000000000004" ry="1.08" fill="#B2503A" transform="rotate(38 89.0 166.0)"/><ellipse cx="98.0" cy="156.0" rx="6" ry="3.7199999999999998" fill="#8C3323" transform="rotate(12 98.0 156.0)"/><ellipse cx="96.5" cy="154.8" rx="2.4000000000000004" ry="1.08" fill="#B2503A" transform="rotate(12 98.0 156.0)"/><ellipse cx="57.0" cy="162.0" rx="6" ry="3.7199999999999998" fill="#8C3323" transform="rotate(137 57.0 162.0)"/><ellipse cx="55.5" cy="160.8" rx="2.4000000000000004" ry="1.08" fill="#B2503A" transform="rotate(137 57.0 162.0)"/><ellipse cx="60.0" cy="147.0" rx="6" ry="3.7199999999999998" fill="#8C3323" transform="rotate(149 60.0 147.0)"/><ellipse cx="58.5" cy="145.8" rx="2.4000000000000004" ry="1.08" fill="#B2503A" transform="rotate(149 60.0 147.0)"/><ellipse cx="55.0" cy="165.0" rx="6" ry="3.7199999999999998" fill="#8C3323" transform="rotate(129 55.0 165.0)"/><ellipse cx="53.5" cy="163.8" rx="2.4000000000000004" ry="1.08" fill="#B2503A" transform="rotate(129 55.0 165.0)"/><ellipse cx="75.0" cy="137.0" rx="6" ry="3.7199999999999998" fill="#8C3323" transform="rotate(22 75.0 137.0)"/><ellipse cx="73.5" cy="135.8" rx="2.4000000000000004" ry="1.08" fill="#B2503A" transform="rotate(22 75.0 137.0)"/><ellipse cx="103.0" cy="149.0" rx="6" ry="3.7199999999999998" fill="#8C3323" transform="rotate(17 103.0 149.0)"/><ellipse cx="101.5" cy="147.8" rx="2.4000000000000004" ry="1.08" fill="#B2503A" transform="rotate(17 103.0 149.0)"/><ellipse cx="78.0" cy="138.0" rx="6" ry="3.7199999999999998" fill="#8C3323" transform="rotate(141 78.0 138.0)"/><ellipse cx="76.5" cy="136.8" rx="2.4000000000000004" ry="1.08" fill="#B2503A" transform="rotate(141 78.0 138.0)"/><ellipse cx="102.0" cy="137.0" rx="6" ry="3.7199999999999998" fill="#8C3323" transform="rotate(144 102.0 137.0)"/><ellipse cx="100.5" cy="135.8" rx="2.4000000000000004" ry="1.08" fill="#B2503A" transform="rotate(144 102.0 137.0)"/><ellipse cx="63.0" cy="166.0" rx="6" ry="3.7199999999999998" fill="#8C3323" transform="rotate(57 63.0 166.0)"/><ellipse cx="61.5" cy="164.8" rx="2.4000000000000004" ry="1.08" fill="#B2503A" transform="rotate(57 63.0 166.0)"/><ellipse cx="55.0" cy="154.0" rx="6" ry="3.7199999999999998" fill="#8C3323" transform="rotate(149 55.0 154.0)"/><ellipse cx="53.5" cy="152.8" rx="2.4000000000000004" ry="1.08" fill="#B2503A" transform="rotate(149 55.0 154.0)"/><ellipse cx="98.0" cy="137.0" rx="6" ry="3.7199999999999998" fill="#8C3323" transform="rotate(56 98.0 137.0)"/><ellipse cx="96.5" cy="135.8" rx="2.4000000000000004" ry="1.08" fill="#B2503A" transform="rotate(56 98.0 137.0)"/><ellipse cx="53.0" cy="153.0" rx="6" ry="3.7199999999999998" fill="#8C3323" transform="rotate(34 53.0 153.0)"/><ellipse cx="51.5" cy="151.8" rx="2.4000000000000004" ry="1.08" fill="#B2503A" transform="rotate(34 53.0 153.0)"/><ellipse cx="85.0" cy="149.0" rx="6" ry="3.7199999999999998" fill="#8C3323" transform="rotate(36 85.0 149.0)"/><ellipse cx="83.5" cy="147.8" rx="2.4000000000000004" ry="1.08" fill="#B2503A" transform="rotate(36 85.0 149.0)"/><ellipse cx="63.0" cy="154.0" rx="6" ry="3.7199999999999998" fill="#8C3323" transform="rotate(78 63.0 154.0)"/><ellipse cx="61.5" cy="152.8" rx="2.4000000000000004" ry="1.08" fill="#B2503A" transform="rotate(78 63.0 154.0)"/><ellipse cx="71.0" cy="139.0" rx="6" ry="3.7199999999999998" fill="#8C3323" transform="rotate(148 71.0 139.0)"/><ellipse cx="69.5" cy="137.8" rx="2.4000000000000004" ry="1.08" fill="#B2503A" transform="rotate(148 71.0 139.0)"/><ellipse cx="72.0" cy="147.0" rx="6" ry="3.7199999999999998" fill="#8C3323" transform="rotate(24 72.0 147.0)"/><ellipse cx="70.5" cy="145.8" rx="2.4000000000000004" ry="1.08" fill="#B2503A" transform="rotate(24 72.0 147.0)"/><ellipse cx="56.0" cy="154.0" rx="6" ry="3.7199999999999998" fill="#8C3323" transform="rotate(15 56.0 154.0)"/><ellipse cx="54.5" cy="152.8" rx="2.4000000000000004" ry="1.08" fill="#B2503A" transform="rotate(15 56.0 154.0)"/><ellipse cx="74.0" cy="151.0" rx="6" ry="3.7199999999999998" fill="#8C3323" transform="rotate(136 74.0 151.0)"/><ellipse cx="72.5" cy="149.8" rx="2.4000000000000004" ry="1.08" fill="#B2503A" transform="rotate(136 74.0 151.0)"/><ellipse cx="102.0" cy="160.0" rx="6" ry="3.7199999999999998" fill="#8C3323" transform="rotate(80 102.0 160.0)"/><ellipse cx="100.5" cy="158.8" rx="2.4000000000000004" ry="1.08" fill="#B2503A" transform="rotate(80 102.0 160.0)"/><ellipse cx="107.0" cy="154.0" rx="6" ry="3.7199999999999998" fill="#8C3323" transform="rotate(116 107.0 154.0)"/><ellipse cx="105.5" cy="152.8" rx="2.4000000000000004" ry="1.08" fill="#B2503A" transform="rotate(116 107.0 154.0)"/><ellipse cx="94.0" cy="145.0" rx="6" ry="3.7199999999999998" fill="#8C3323" transform="rotate(63 94.0 145.0)"/><ellipse cx="92.5" cy="143.8" rx="2.4000000000000004" ry="1.08" fill="#B2503A" transform="rotate(63 94.0 145.0)"/><ellipse cx="71.0" cy="158.0" rx="6" ry="3.7199999999999998" fill="#8C3323" transform="rotate(62 71.0 158.0)"/><ellipse cx="69.5" cy="156.8" rx="2.4000000000000004" ry="1.08" fill="#B2503A" transform="rotate(62 71.0 158.0)"/><ellipse cx="58.0" cy="154.0" rx="6" ry="3.7199999999999998" fill="#8C3323" transform="rotate(76 58.0 154.0)"/><ellipse cx="56.5" cy="152.8" rx="2.4000000000000004" ry="1.08" fill="#B2503A" transform="rotate(76 58.0 154.0)"/><ellipse cx="115.0" cy="151.0" rx="6" ry="3.7199999999999998" fill="#8C3323" transform="rotate(87 115.0 151.0)"/><ellipse cx="113.5" cy="149.8" rx="2.4000000000000004" ry="1.08" fill="#B2503A" transform="rotate(87 115.0 151.0)"/><ellipse cx="105.0" cy="145.0" rx="6" ry="3.7199999999999998" fill="#8C3323" transform="rotate(155 105.0 145.0)"/><ellipse cx="103.5" cy="143.8" rx="2.4000000000000004" ry="1.08" fill="#B2503A" transform="rotate(155 105.0 145.0)"/><ellipse cx="57.0" cy="139.0" rx="6" ry="3.7199999999999998" fill="#8C3323" transform="rotate(131 57.0 139.0)"/><ellipse cx="55.5" cy="137.8" rx="2.4000000000000004" ry="1.08" fill="#B2503A" transform="rotate(131 57.0 139.0)"/><ellipse cx="101.0" cy="141.0" rx="6" ry="3.7199999999999998" fill="#8C3323" transform="rotate(87 101.0 141.0)"/><ellipse cx="99.5" cy="139.8" rx="2.4000000000000004" ry="1.08" fill="#B2503A" transform="rotate(87 101.0 141.0)"/><ellipse cx="67.0" cy="165.0" rx="6" ry="3.7199999999999998" fill="#8C3323" transform="rotate(125 67.0 165.0)"/><ellipse cx="65.5" cy="163.8" rx="2.4000000000000004" ry="1.08" fill="#B2503A" transform="rotate(125 67.0 165.0)"/><ellipse cx="101.0" cy="137.0" rx="6" ry="3.7199999999999998" fill="#8C3323" transform="rotate(19 101.0 137.0)"/><ellipse cx="99.5" cy="135.8" rx="2.4000000000000004" ry="1.08" fill="#B2503A" transform="rotate(19 101.0 137.0)"/><ellipse cx="170" cy="165.0" rx="44" ry="20" fill="#DCE6E0"/><path d="M126 165.0 Q130.4 128.0 170 128.0 Q209.6 128.0 214 165.0 Z" fill="#FFFFFF"/><path d="M183.2 132.0 Q211.8 140 214 165.0 Q196.4 170.0 178.8 148.0Z" fill="#DCE6E0" opacity=".7"/><ellipse cx="188.6" cy="148.2" rx="4.2" ry="1.7" fill="#fff" stroke="#DCE6E0" stroke-width=".8" transform="rotate(80 188.6 148.2)"/><ellipse cx="158.7" cy="142.8" rx="4.2" ry="1.7" fill="#fff" stroke="#DCE6E0" stroke-width=".8" transform="rotate(127 158.7 142.8)"/><ellipse cx="175.6" cy="145.3" rx="4.2" ry="1.7" fill="#fff" stroke="#DCE6E0" stroke-width=".8" transform="rotate(23 175.6 145.3)"/><ellipse cx="201.3" cy="145.8" rx="4.2" ry="1.7" fill="#fff" stroke="#DCE6E0" stroke-width=".8" transform="rotate(170 201.3 145.8)"/><ellipse cx="139.4" cy="151.9" rx="4.2" ry="1.7" fill="#fff" stroke="#DCE6E0" stroke-width=".8" transform="rotate(79 139.4 151.9)"/><ellipse cx="180.4" cy="158.2" rx="4.2" ry="1.7" fill="#fff" stroke="#DCE6E0" stroke-width=".8" transform="rotate(114 180.4 158.2)"/><ellipse cx="154.8" cy="143.7" rx="4.2" ry="1.7" fill="#fff" stroke="#DCE6E0" stroke-width=".8" transform="rotate(88 154.8 143.7)"/><ellipse cx="136.4" cy="145.5" rx="4.2" ry="1.7" fill="#fff" stroke="#DCE6E0" stroke-width=".8" transform="rotate(43 136.4 145.5)"/><ellipse cx="177.8" cy="146.2" rx="4.2" ry="1.7" fill="#fff" stroke="#DCE6E0" stroke-width=".8" transform="rotate(55 177.8 146.2)"/><ellipse cx="188.9" cy="137.5" rx="4.2" ry="1.7" fill="#fff" stroke="#DCE6E0" stroke-width=".8" transform="rotate(63 188.9 137.5)"/><ellipse cx="162.8" cy="156.4" rx="4.2" ry="1.7" fill="#fff" stroke="#DCE6E0" stroke-width=".8" transform="rotate(127 162.8 156.4)"/><ellipse cx="140.5" cy="145.2" rx="4.2" ry="1.7" fill="#fff" stroke="#DCE6E0" stroke-width=".8" transform="rotate(140 140.5 145.2)"/><ellipse cx="154.4" cy="137.7" rx="4.2" ry="1.7" fill="#fff" stroke="#DCE6E0" stroke-width=".8" transform="rotate(110 154.4 137.7)"/><ellipse cx="195.6" cy="141.1" rx="4.2" ry="1.7" fill="#fff" stroke="#DCE6E0" stroke-width=".8" transform="rotate(106 195.6 141.1)"/><ellipse cx="204.2" cy="150.8" rx="4.2" ry="1.7" fill="#fff" stroke="#DCE6E0" stroke-width=".8" transform="rotate(97 204.2 150.8)"/><ellipse cx="202.2" cy="138.0" rx="4.2" ry="1.7" fill="#fff" stroke="#DCE6E0" stroke-width=".8" transform="rotate(45 202.2 138.0)"/><ellipse cx="145.5" cy="150.2" rx="4.2" ry="1.7" fill="#fff" stroke="#DCE6E0" stroke-width=".8" transform="rotate(3 145.5 150.2)"/><ellipse cx="168.9" cy="148.5" rx="4.2" ry="1.7" fill="#fff" stroke="#DCE6E0" stroke-width=".8" transform="rotate(67 168.9 148.5)"/><ellipse cx="154.6" cy="137.9" rx="4.2" ry="1.7" fill="#fff" stroke="#DCE6E0" stroke-width=".8" transform="rotate(136 154.6 137.9)"/><ellipse cx="160.8" cy="148.0" rx="4.2" ry="1.7" fill="#fff" stroke="#DCE6E0" stroke-width=".8" transform="rotate(32 160.8 148.0)"/><ellipse cx="183.4" cy="146.8" rx="4.2" ry="1.7" fill="#fff" stroke="#DCE6E0" stroke-width=".8" transform="rotate(158 183.4 146.8)"/><ellipse cx="180.9" cy="152.2" rx="4.2" ry="1.7" fill="#fff" stroke="#DCE6E0" stroke-width=".8" transform="rotate(116 180.9 152.2)"/><ellipse cx="198.1" cy="153.1" rx="4.2" ry="1.7" fill="#fff" stroke="#DCE6E0" stroke-width=".8" transform="rotate(143 198.1 153.1)"/><ellipse cx="162.4" cy="144.0" rx="4.2" ry="1.7" fill="#fff" stroke="#DCE6E0" stroke-width=".8" transform="rotate(26 162.4 144.0)"/><ellipse cx="168.7" cy="144.0" rx="4.2" ry="1.7" fill="#fff" stroke="#DCE6E0" stroke-width=".8" transform="rotate(48 168.7 144.0)"/><ellipse cx="139.5" cy="139.4" rx="4.2" ry="1.7" fill="#fff" stroke="#DCE6E0" stroke-width=".8" transform="rotate(41 139.5 139.4)"/><ellipse cx="142.5" cy="148.8" rx="4.2" ry="1.7" fill="#fff" stroke="#DCE6E0" stroke-width=".8" transform="rotate(26 142.5 148.8)"/><ellipse cx="134.8" cy="138.0" rx="4.2" ry="1.7" fill="#fff" stroke="#DCE6E0" stroke-width=".8" transform="rotate(25 134.8 138.0)"/><ellipse cx="201.6" cy="149.1" rx="4.2" ry="1.7" fill="#fff" stroke="#DCE6E0" stroke-width=".8" transform="rotate(18 201.6 149.1)"/><ellipse cx="196.4" cy="149.1" rx="4.2" ry="1.7" fill="#fff" stroke="#DCE6E0" stroke-width=".8" transform="rotate(38 196.4 149.1)"/><ellipse cx="126" cy="151" rx="25.299999999999997" ry="17.6" fill="#D9E6DE"/><ellipse cx="126" cy="148" rx="25.299999999999997" ry="17.6" fill="#FFFFFF"/><circle cx="123.8" cy="148" r="9.9" fill="#F0A312"/><circle cx="123.8" cy="148" r="9.9" fill="#FFC12E" transform="translate(-1.5,-1.5)"/><circle cx="119.84" cy="143.6" r="2.6399999999999997" fill="#fff" opacity=".8"/><rect x="118" y="186" width="64" height="10" fill="#E39A2B"/><ellipse cx="150" cy="196" rx="32" ry="10" fill="#E39A2B"/><ellipse cx="150" cy="186" rx="32" ry="10" fill="#F9D067"/><ellipse cx="142" cy="184" rx="7" ry="2.6" fill="#E39A2B" opacity=".7"/><ellipse cx="160" cy="188" rx="6" ry="2.4" fill="#E39A2B" opacity=".7"/><ellipse cx="60" cy="193" rx="14" ry="9" fill="#7A2A18"/><ellipse cx="60" cy="190" rx="14" ry="9" fill="#B5472B"/><circle cx="56" cy="189" r="2.4" fill="#F1B6A0"/><circle cx="64" cy="192" r="2" fill="#F1B6A0"/><ellipse cx="84" cy="199" rx="14" ry="9" fill="#7A2A18"/><ellipse cx="84" cy="196" rx="14" ry="9" fill="#B5472B"/><circle cx="80" cy="195" r="2.4" fill="#F1B6A0"/><circle cx="88" cy="198" r="2" fill="#F1B6A0"/><ellipse cx="108" cy="201" rx="14" ry="9" fill="#7A2A18"/><ellipse cx="108" cy="198" rx="14" ry="9" fill="#B5472B"/><circle cx="104" cy="197" r="2.4" fill="#F1B6A0"/><circle cx="112" cy="200" r="2" fill="#F1B6A0"/><ellipse cx="192" cy="196" rx="12" ry="7" fill="#F2C13A" transform="rotate(20 192 196)"/><ellipse cx="192" cy="196" rx="12" ry="7" fill="none" stroke="#7A4A0E" stroke-width="2.4" transform="rotate(20 192 196)"/><ellipse cx="206" cy="182" rx="12" ry="7" fill="#F2C13A" transform="rotate(-10 206 182)"/><ellipse cx="206" cy="182" rx="12" ry="7" fill="none" stroke="#7A4A0E" stroke-width="2.4" transform="rotate(-10 206 182)"/><g transform="translate(96,128) rotate(-10)"><path d="M0 0 q6 -9 13 -1 q-6 5 -13 1z" fill="#6CC04A"/><path d="M5 -2 q3 -10 11 -6 q-3 7 -11 6z" fill="#8FDC63"/><path d="M0 0 q-6 -7 -12 0 q6 4 12 0z" fill="#4FA84F"/></g><g transform="translate(184,140) rotate(20)"><path d="M0 0 q6 -9 13 -1 q-6 5 -13 1z" fill="#6CC04A"/><path d="M5 -2 q3 -10 11 -6 q-3 7 -11 6z" fill="#8FDC63"/><path d="M0 0 q-6 -7 -12 0 q6 4 12 0z" fill="#4FA84F"/></g></svg>