<svg xmlns="http://www.w3.org/2000/svg" viewBox="24.3 31.1 207.4 207.4" xmlns:c2pa="http://c2pa.org/manifest"><metadata><c2pa:manifest>AAAWgmp1bWIAAAAeanVtZGMycGEAEQAQgAAAqgA4m3EDYzJwYQAAABZcanVtYgAAAEdqdW1kYzJtYQARABCAAACqADibcQN1cm46YzJwYTpiNTdhNGFlNy05ZTlhLTQwNDEtYTZkZS1kMzE0YWNjOGE0YTAAAAADl2p1bWIAAAApanVtZGMyYXMAEQAQgAAAqgA4m3EDYzJwYS5hc3NlcnRpb25zAAAAALxqdW1iAAAARGp1bWRjYm9yABEAEIAAAKoAOJtxE2MycGEuaW5ncmVkaWVudC52MwAAAAAYYzJzaIvwCdstkgGTf2JhftkDsgoAAABwY2JvcqNpZGM6Zm9ybWF0bWltYWdlL3N2Zyt4bWxqaW5zdGFuY2VJRHgseG1wOmlpZDowOWNkMTFkNC03YzU1LTQyMDUtOTIzMC1jMWQ0M2IxNzg1ODdscmVsYXRpb25zaGlwaHBhcmVudE9mAAAB4mp1bWIAAABBanVtZGNib3IAEQAQgAAAqgA4m3ETYzJwYS5hY3Rpb25zLnYyAAAAABhjMnNoRae/KWRM2wXvtcn8Rc8NqgAAAZljYm9yomdhY3Rpb25zgqJmYWN0aW9ua2MycGEub3BlbmVkanBhcmFtZXRlcnOha2luZ3JlZGllbnRzgaJjdXJseC1zZWxmI2p1bWJmPWMycGEuYXNzZXJ0aW9ucy9jMnBhLmluZ3JlZGllbnQudjNkaGFzaFgg7J2uZ52GpTcXl5xDiY6yhSqQ6ddhEEDqvQPWS/1wUeakZmFjdGlvbngdY29tLmFudGhyb3BpYy5jbGF1ZGUucHJvdmlkZWRqcGFyYW1ldGVyc6F4H2NvbS5hbnRocm9waWMub3JpZ2luLWNvbmZpZGVuY2VndW5rbm93bmtkZXNjcmlwdGlvbnhmQ2xhdWRlIHByb3ZpZGVkIHRoaXMgZmlsZSBhdCB0aGUgcmVxdWVzdCBvZiBhIHVzZXIgYW5kIG1heSBoYXZlIGNyZWF0ZWQgb3IgbW9kaWZpZWQgdGhlIGZpbGUgY29udGVudHMubXNvZnR3YXJlQWdlbnShZG5hbWVmQ2xhdWRlcmFsbEFjdGlvbnNJbmNsdWRlZPUAAADIanVtYgAAAEBqdW1kY2JvcgARABCAAACqADibcRNjMnBhLmhhc2guZGF0YQAAAAAYYzJzaOVgZ0lg6/sOAdJx4cChWmAAAACAY2JvcqVjYWxnZnNoYTI1NmNwYWRNAAAAAAAAAAAAAAAAAGRoYXNoWCCaLJTXkVecxzYppYRdrRYr50CQ6Dg8lLGLCdkc6+rtD2RuYW1lbmp1bWJmIG1hbmlmZXN0amV4Y2x1c2lvbnOBomVzdGFydBiHZmxlbmd0aBkeBAAAAj5qdW1iAAAAJ2p1bWRjMmNsABEAEIAAAKoAOJtxA2MycGEuY2xhaW0udjIAAAACD2Nib3KlY2FsZ2ZzaGEyNTZpc2lnbmF0dXJleE1zZWxmI2p1bWJmPS9jMnBhL3VybjpjMnBhOmI1N2E0YWU3LTllOWEtNDA0MS1hNmRlLWQzMTRhY2M4YTRhMC9jMnBhLnNpZ25hdHVyZWppbnN0YW5jZUlEeCx4bXA6aWlkOjA5ODRkOTQ3LTI1ZjEtNGQ3NS1hMTVlLTdkODYwMjcxNTE1YnJjcmVhdGVkX2Fzc2VydGlvbnODomN1cmx4LXNlbGYjanVtYmY9YzJwYS5hc3NlcnRpb25zL2MycGEuaW5ncmVkaWVudC52M2RoYXNoWCDsna5nnYalNxeXnEOJjrKFKpDp12EQQOq9A9ZL/XBR5qJjdXJseCpzZWxmI2p1bWJmPWMycGEuYXNzZXJ0aW9ucy9jMnBhLmFjdGlvbnMudjJkaGFzaFggpCLYr2b8+emtXecMv9R2PK5mGXJ5DMyD/wtwMDHxtTCiY3VybHgpc2VsZiNqdW1iZj1jMnBhLmFzc2VydGlvbnMvYzJwYS5oYXNoLmRhdGFkaGFzaFgg6XL/1pAIZgKK01+dcfPExOGU/Ns8UhaSd5sBQXPZYVF0Y2xhaW1fZ2VuZXJhdG9yX2luZm+jZG5hbWVvQW50aHJvcGljIEZpbGVzZ3ZlcnNpb25lMS4wLjBrc3BlY1ZlcnNpb25lMi40LjAAABA4anVtYgAAAChqdW1kYzJjcwARABCAAACqADibcQNjMnBhLnNpZ25hdHVyZQAAABAIY2JvctKEWQISogEmGCFZAgowggIGMIIBjaADAgECAhRA5aAK7sI50L64g/oGQgU9Z1UTADAKBggqhkjOPQQDAzBJMRcwFQYDVQQKEw5BbnRocm9waWMsIFBCQzEuMCwGA1UEAxMlQW50aHJvcGljIENvbnRlbnQgQ3JlZGVudGlhbHMgUm9vdCBDQTAeFw0yNjA4MDcxODQzNTZaFw0yODA4MDYxOTQzNTZaMEQxFzAVBgNVBAoTDkFudGhyb3BpYywgUEJDMSkwJwYDVQQDEyBBbnRocm9waWMgQ2xhdWRlIENvbnRlbnQgU2lnbmluZzBZMBMGByqGSM49AgEGCCqGSM49AwEHA0IABJh6CmvLUBgFFNU0vUKlOVtE6djd17L5SuwX0LemFisBM3dkd/3cyjxFA3Qo5S46fX0/ihY0VZ7mfb9KF703t5OjWDBWMA4GA1UdDwEB/wQEAwIHgDAVBgNVHSUEDjAMBgorBgEEAYPoXgIBMAwGA1UdEwEB/wQCMAAwHwYDVR0jBBgwFoAUzlHiBIFOZFsj+OPEz5o+nMHXXMIwCgYIKoZIzj0EAwMDZwAwZAIwMXMdFJ4BetLLVY7ORuE9noqbbAZOZn/aArXyTwFAZfKrPzxF2vPoJNf1+UCdg1XGAjBwX1zd9WGqYkqmL5SFqw1QySjr1zJfpJM9+1rdDwSPLMOPOjKuiXjoU/pUUeG9RwmhY3BhZFkNngAAAAAAAAAAAAAAAAAAAAAAAAAAAAAAAAAAAAAAAAAAAAAAAAAAAAAAAAAAAAAAAAAAAAAAAAAAAAAAAAAAAAAAAAAAAAAAAAAAAAAAAAAAAAAAAAAAAAAAAAAAAAAAAAAAAAAAAAAAAAAAAAAAAAAAAAAAAAAAAAAAAAAAAAAAAAAAAAAAAAAAAAAAAAAAAAAAAAAAAAAAAAAAAAAAAAAAAAAAAAAAAAAAAAAAAAAAAAAAAAAAAAAAAAAAAAAAAAAAAAAAAAAAAAAAAAAAAAAAAAAAAAAAAAAAAAAAAAAAAAAAAAAAAAAAAAAAAAAAAAAAAAAAAAAAAAAAAAAAAAAAAAAAAAAAAAAAAAAAAAAAAAAAAAAAAAAAAAAAAAAAAAAAAAAAAAAAAAAAAAAAAAAAAAAAAAAAAAAAAAAAAAAAAAAAAAAAAAAAAAAAAAAAAAAAAAAAAAAAAAAAAAAAAAAAAAAAAAAAAAAAAAAAAAAAAAAAAAAAAAAAAAAAAAAAAAAAAAAAAAAAAAAAAAAAAAAAAAAAAAAAAAAAAAAAAAAAAAAAAAAAAAAAAAAAAAAAAAAAAAAAAAAAAAAAAAAAAAAAAAAAAAAAAAAAAAAAAAAAAAAAAAAAAAAAAAAAAAAAAAAAAAAAAAAAAAAAAAAAAAAAAAAAAAAAAAAAAAAAAAAAAAAAAAAAAAAAAAAAAAAAAAAAAAAAAAAAAAAAAAAAAAAAAAAAAAAAAAAAAAAAAAAAAAAAAAAAAAAAAAAAAAAAAAAAAAAAAAAAAAAAAAAAAAAAAAAAAAAAAAAAAAAAAAAAAAAAAAAAAAAAAAAAAAAAAAAAAAAAAAAAAAAAAAAAAAAAAAAAAAAAAAAAAAAAAAAAAAAAAAAAAAAAAAAAAAAAAAAAAAAAAAAAAAAAAAAAAAAAAAAAAAAAAAAAAAAAAAAAAAAAAAAAAAAAAAAAAAAAAAAAAAAAAAAAAAAAAAAAAAAAAAAAAAAAAAAAAAAAAAAAAAAAAAAAAAAAAAAAAAAAAAAAAAAAAAAAAAAAAAAAAAAAAAAAAAAAAAAAAAAAAAAAAAAAAAAAAAAAAAAAAAAAAAAAAAAAAAAAAAAAAAAAAAAAAAAAAAAAAAAAAAAAAAAAAAAAAAAAAAAAAAAAAAAAAAAAAAAAAAAAAAAAAAAAAAAAAAAAAAAAAAAAAAAAAAAAAAAAAAAAAAAAAAAAAAAAAAAAAAAAAAAAAAAAAAAAAAAAAAAAAAAAAAAAAAAAAAAAAAAAAAAAAAAAAAAAAAAAAAAAAAAAAAAAAAAAAAAAAAAAAAAAAAAAAAAAAAAAAAAAAAAAAAAAAAAAAAAAAAAAAAAAAAAAAAAAAAAAAAAAAAAAAAAAAAAAAAAAAAAAAAAAAAAAAAAAAAAAAAAAAAAAAAAAAAAAAAAAAAAAAAAAAAAAAAAAAAAAAAAAAAAAAAAAAAAAAAAAAAAAAAAAAAAAAAAAAAAAAAAAAAAAAAAAAAAAAAAAAAAAAAAAAAAAAAAAAAAAAAAAAAAAAAAAAAAAAAAAAAAAAAAAAAAAAAAAAAAAAAAAAAAAAAAAAAAAAAAAAAAAAAAAAAAAAAAAAAAAAAAAAAAAAAAAAAAAAAAAAAAAAAAAAAAAAAAAAAAAAAAAAAAAAAAAAAAAAAAAAAAAAAAAAAAAAAAAAAAAAAAAAAAAAAAAAAAAAAAAAAAAAAAAAAAAAAAAAAAAAAAAAAAAAAAAAAAAAAAAAAAAAAAAAAAAAAAAAAAAAAAAAAAAAAAAAAAAAAAAAAAAAAAAAAAAAAAAAAAAAAAAAAAAAAAAAAAAAAAAAAAAAAAAAAAAAAAAAAAAAAAAAAAAAAAAAAAAAAAAAAAAAAAAAAAAAAAAAAAAAAAAAAAAAAAAAAAAAAAAAAAAAAAAAAAAAAAAAAAAAAAAAAAAAAAAAAAAAAAAAAAAAAAAAAAAAAAAAAAAAAAAAAAAAAAAAAAAAAAAAAAAAAAAAAAAAAAAAAAAAAAAAAAAAAAAAAAAAAAAAAAAAAAAAAAAAAAAAAAAAAAAAAAAAAAAAAAAAAAAAAAAAAAAAAAAAAAAAAAAAAAAAAAAAAAAAAAAAAAAAAAAAAAAAAAAAAAAAAAAAAAAAAAAAAAAAAAAAAAAAAAAAAAAAAAAAAAAAAAAAAAAAAAAAAAAAAAAAAAAAAAAAAAAAAAAAAAAAAAAAAAAAAAAAAAAAAAAAAAAAAAAAAAAAAAAAAAAAAAAAAAAAAAAAAAAAAAAAAAAAAAAAAAAAAAAAAAAAAAAAAAAAAAAAAAAAAAAAAAAAAAAAAAAAAAAAAAAAAAAAAAAAAAAAAAAAAAAAAAAAAAAAAAAAAAAAAAAAAAAAAAAAAAAAAAAAAAAAAAAAAAAAAAAAAAAAAAAAAAAAAAAAAAAAAAAAAAAAAAAAAAAAAAAAAAAAAAAAAAAAAAAAAAAAAAAAAAAAAAAAAAAAAAAAAAAAAAAAAAAAAAAAAAAAAAAAAAAAAAAAAAAAAAAAAAAAAAAAAAAAAAAAAAAAAAAAAAAAAAAAAAAAAAAAAAAAAAAAAAAAAAAAAAAAAAAAAAAAAAAAAAAAAAAAAAAAAAAAAAAAAAAAAAAAAAAAAAAAAAAAAAAAAAAAAAAAAAAAAAAAAAAAAAAAAAAAAAAAAAAAAAAAAAAAAAAAAAAAAAAAAAAAAAAAAAAAAAAAAAAAAAAAAAAAAAAAAAAAAAAAAAAAAAAAAAAAAAAAAAAAAAAAAAAAAAAAAAAAAAAAAAAAAAAAAAAAAAAAAAAAAAAAAAAAAAAAAAAAAAAAAAAAAAAAAAAAAAAAAAAAAAAAAAAAAAAAAAAAAAAAAAAAAAAAAAAAAAAAAAAAAAAAAAAAAAAAAAAAAAAAAAAAAAAAAAAAAAAAAAAAAAAAAAAAAAAAAAAAAAAAAAAAAAAAAAAAAAAAAAAAAAAAAAAAAAAAAAAAAAAAAAAAAAAAAAAAAAAAAAAAAAAAAAAAAAAAAAAAAAAAAAAAAAAAAAAAAAAAAAAAAAAAAAAAAAAAAAAAAAAAAAAAAAAAAAAAAAAAAAAAAAAAAAAAAAAAAAAAAAAAAAAAAAAAAAAAAAAAAAAAAAAAAAAAAAAAAAAAAAAAAAAAAAAAAAAAAAAAAAAAAAAAAAAAAAAAAAAAAAAAAAAAAAAAAAAAAAAAAAAAAAAAAAAAAAAAAAAAAAAAAAAAAAAAAAAAAAAAAAAAAAAAAAAAAAAAAAAAAAAAAAAAAAAAAAAAAAAAAAAAAAAAAAAAAAAAAAAAAAAAAAAAAAAAAAAAAAAAAAAAAAAAAAAAAAAAAAAAAAAAAAAAAAAAAAAAAAAAAAAAAAAAAAAAAAAAAAAAAAAAAAAAAAAAAAAAAAAAAAAAAAAAAAAAAAAAAAAAAAAAAAAAAAAAAAAAAAAAAAAAAAAAAAAAAAAAAAAAAAAAAAAAAAAAAAAAAAAAAAAAAAAAAAAAAAAAAAAAAAAAAAAAAAAAAAAAAAAAAAAAAAAAAAAAAAAAAAAAAAAAAAAAAAAAAAAAAAAAAAAAAAAAAAAAAAAAAAAAAAAAAAAAAAAAAAAAAAAAAAAAAAAAAAAAAAAAAAAAAAAAAAAAAAAAAAAAAAAAAAAAAAAAAAAAAAAAAAAAAAAAAAAAAAAAAAAAAAAAAAAAAAAAAAAAAAAAAAAAAAAAAAAAAAAAAAAAAAAAAAAAAAAAAAAAAAAAAAAAAAAAAAAAAAAAAAAAAAAAAAAAAAAAAAAAAAAAAAAAAAAAAAAAAAAAAAAAAAAAAAAAAAAAAAAAAAAAAAAAAAAAAAAAAAAAAAAAAAAAAAAAAAAAAAAAAAAAAAAAAAAAAAAAAAAAAAAAAAAAAAAAAAAAAAAAAAAAAAAAAAAAAAAAAAAAAAAAAAAAAAAAAAAAAAAAAAAAAAAAAAAAAAAAAAAAAAAAAAAAAAAAAAAAAAAAAAAAAAAAAAAAAAAAAAAAAAAAAAAAAAAAAAAAAAAAAAAAAAAAAAAAAAAAAAAAAAAAAAAAAAAAAAAAAAAAAAAAAAAAAAAAAAAAAAAAAAAAAAAAAAAAAAAAAAAAAAAAAAAAAAAAAAAAAAAAAAAAAAAAAAAAAAAAAAAAAAAAAAAAAAAAAAAAAAAAAAAAAAAAAAAAAAAAAAAAAAAAAAAAAAAAAAAAAAAAAAAAAAAAAAAAAAAAAAAAAAAAAAAAAAAAAAAAAAAAAAAAAAAAAAAAAAAAAAAAAAAAAAAAAAAAAAAAAAAAAAAAAAAAAAAAAAAAAAAAAAAAAAAAAAAAAAAAAAAAAAAAAAAAAAAAAAAAAAAAAAAAAAAAAAAAAAAAAAAAAAAAAAAAAAAAAAAAAAAAAAAAAAAAAAAAAAAAAAAAAAAAAAAAAAAAAAAAAAAAAAAAAAAAAAAAAAAAAAAAAAAAAAAAAAAAAAAAAAAAAAAAAAAAAAAAAAAAAAAAAAAAAAAAAAAAAAAAAAAAAAAAAAAAAAAAAAAAAAAAAAAAAAAAAAAAAAAAAAAAAAAAAAAAAAAAAAAAAAAAAAAAAAAAAAAAAAAAAAAAAAAAAAAAAAAAAAAAAAAAAAAAAAAAAAAAAAAAAAAAAAAAAAAAAAAAAAAAAAAAAAAAAAAAAAAAAAAAAAAAAAAAAAAAAAAAAAAAAAAAPZYQDcUIm0l0Wvcpi7egDAM2Ufk1CoXOMGR4svrdrhdMtRGBkv/U3Mql9RTlwkz7hZZYe8UHRxOeKUED7u4sF8qpuk=</c2pa:manifest></metadata><path d="M32 124 A96 72 0 0 0 224 124 Z" fill="#BEDEE9"/><path d="M42 132 Q46 181.6 89.6 192.39999999999998" fill="none" stroke="#fff" stroke-width="7" stroke-linecap="round" opacity=".28"/><ellipse cx="128" cy="124" rx="96" ry="30" fill="#F5FBFD"/><ellipse cx="128" cy="125" rx="87" ry="25" fill="#F5F9FB"/><ellipse cx="128" cy="101" rx="66" ry="3" fill="#fff" opacity=".35"/><g transform="translate(128,108) scale(1.28) translate(-128,-118)"><rect x="76" y="108" width="16" height="16" rx="4" fill="#F27B3B" transform="rotate(0 84 116)"/><rect x="78" y="110" width="9" height="6" rx="2" fill="#FFB27C" transform="rotate(0 84 116)"/><circle cx="112" cy="126" r="11" fill="#E8C348"/><circle cx="112" cy="126" r="9" fill="#FFE58A"/><circle cx="112" cy="126" r="3" fill="#F6D65E"/><circle cx="110" cy="122" r=".9" fill="#8A6A1E"/><circle cx="115" cy="128" r=".9" fill="#8A6A1E"/><circle cx="150" cy="124" r="11" fill="#5A9E2F"/><circle cx="150" cy="124" r="9" fill="#9BD74A"/><circle cx="150" cy="124" r="3.4" fill="#E8F6C0"/><circle cx="156.0" cy="124.0" r="1" fill="#1E3B10"/><circle cx="154.2" cy="128.2" r="1" fill="#1E3B10"/><circle cx="150.0" cy="130.0" r="1" fill="#1E3B10"/><circle cx="145.8" cy="128.2" r="1" fill="#1E3B10"/><circle cx="144.0" cy="124.0" r="1" fill="#1E3B10"/><circle cx="145.8" cy="119.8" r="1" fill="#1E3B10"/><circle cx="150.0" cy="118.0" r="1" fill="#1E3B10"/><circle cx="154.2" cy="119.8" r="1" fill="#1E3B10"/><circle cx="174" cy="114" r="11" fill="#F08A12"/><circle cx="174" cy="114" r="9" fill="#FFB43C"/><path d="M174 114 L182.0 114.0" stroke="#F08A12" stroke-width="1.4"/><path d="M174 114 L178.0 120.9" stroke="#F08A12" stroke-width="1.4"/><path d="M174 114 L170.0 120.9" stroke="#F08A12" stroke-width="1.4"/><path d="M174 114 L166.0 114.0" stroke="#F08A12" stroke-width="1.4"/><path d="M174 114 L170.0 107.1" stroke="#F08A12" stroke-width="1.4"/><path d="M174 114 L178.0 107.1" stroke="#F08A12" stroke-width="1.4"/><rect x="134" y="100" width="16" height="16" rx="4" fill="#F27B3B" transform="rotate(0 142 108)"/><rect x="136" y="102" width="9" height="6" rx="2" fill="#FFB27C" transform="rotate(0 142 108)"/><circle cx="80" cy="132" r="11" fill="#E8C348"/><circle cx="80" cy="132" r="9" fill="#FFE58A"/><circle cx="80" cy="132" r="3" fill="#F6D65E"/><circle cx="78" cy="128" r=".9" fill="#8A6A1E"/><circle cx="83" cy="134" r=".9" fill="#8A6A1E"/><circle cx="110" cy="108" r="11" fill="#5A9E2F"/><circle cx="110" cy="108" r="9" fill="#9BD74A"/><circle cx="110" cy="108" r="3.4" fill="#E8F6C0"/><circle cx="116.0" cy="108.0" r="1" fill="#1E3B10"/><circle cx="114.2" cy="112.2" r="1" fill="#1E3B10"/><circle cx="110.0" cy="114.0" r="1" fill="#1E3B10"/><circle cx="105.8" cy="112.2" r="1" fill="#1E3B10"/><circle cx="104.0" cy="108.0" r="1" fill="#1E3B10"/><circle cx="105.8" cy="103.8" r="1" fill="#1E3B10"/><circle cx="110.0" cy="102.0" r="1" fill="#1E3B10"/><circle cx="114.2" cy="103.8" r="1" fill="#1E3B10"/><circle cx="132" cy="132" r="11" fill="#F08A12"/><circle cx="132" cy="132" r="9" fill="#FFB43C"/><path d="M132 132 L140.0 132.0" stroke="#F08A12" stroke-width="1.4"/><path d="M132 132 L136.0 138.9" stroke="#F08A12" stroke-width="1.4"/><path d="M132 132 L128.0 138.9" stroke="#F08A12" stroke-width="1.4"/><path d="M132 132 L124.0 132.0" stroke="#F08A12" stroke-width="1.4"/><path d="M132 132 L128.0 125.1" stroke="#F08A12" stroke-width="1.4"/><path d="M132 132 L136.0 125.1" stroke="#F08A12" stroke-width="1.4"/><circle cx="96" cy="106" r="7.5" fill="#6A3FA0"/><circle cx="94" cy="104" r="2.4" fill="#B79AE0"/><path d="M114 98 Q124 92 134 98 Q133 116 124 122 Q115 116 114 98Z" fill="#D8283C"/><path d="M114 98 Q124 92 134 98 Q128 104 124 108Z" fill="#F05468" opacity=".9"/><path d="M118 97 l6 -6 l6 6z" fill="#4FA84F"/><circle cx="120" cy="106" r="1.1" fill="#FFE29A"/><circle cx="127" cy="104" r="1.1" fill="#FFE29A"/><circle cx="123" cy="112" r="1.1" fill="#FFE29A"/><circle cx="128" cy="110" r="1.1" fill="#FFE29A"/><circle cx="119" cy="103" r="1.1" fill="#FFE29A"/><circle cx="160" cy="106" r="7.5" fill="#6A3FA0"/><circle cx="158" cy="104" r="2.4" fill="#B79AE0"/><path d="M62 102 Q72 96 82 102 Q81 120 72 126 Q63 120 62 102Z" fill="#D8283C"/><path d="M62 102 Q72 96 82 102 Q76 108 72 112Z" fill="#F05468" opacity=".9"/><path d="M66 101 l6 -6 l6 6z" fill="#4FA84F"/><circle cx="68" cy="110" r="1.1" fill="#FFE29A"/><circle cx="75" cy="108" r="1.1" fill="#FFE29A"/><circle cx="71" cy="116" r="1.1" fill="#FFE29A"/><circle cx="76" cy="114" r="1.1" fill="#FFE29A"/><circle cx="67" cy="107" r="1.1" fill="#FFE29A"/><circle cx="178" cy="120" r="7.5" fill="#6A3FA0"/><circle cx="176" cy="118" r="2.4" fill="#B79AE0"/><path d="M138 116 Q148 110 158 116 Q157 134 148 140 Q139 134 138 116Z" fill="#D8283C"/><path d="M138 116 Q148 110 158 116 Q152 122 148 126Z" fill="#F05468" opacity=".9"/><path d="M142 115 l6 -6 l6 6z" fill="#4FA84F"/><circle cx="144" cy="124" r="1.1" fill="#FFE29A"/><circle cx="151" cy="122" r="1.1" fill="#FFE29A"/><circle cx="147" cy="130" r="1.1" fill="#FFE29A"/><circle cx="152" cy="128" r="1.1" fill="#FFE29A"/><circle cx="143" cy="121" r="1.1" fill="#FFE29A"/><circle cx="104" cy="128" r="7.5" fill="#6A3FA0"/><circle cx="102" cy="126" r="2.4" fill="#B79AE0"/><circle cx="88" cy="124" r="6.5" fill="#3F5FB5"/><circle cx="86" cy="122" r="2" fill="#98B0EC"/><circle cx="88" cy="125" r="1.6" fill="#22377A"/><circle cx="118" cy="118" r="6.5" fill="#3F5FB5"/><circle cx="116" cy="116" r="2" fill="#98B0EC"/><circle cx="118" cy="119" r="1.6" fill="#22377A"/><circle cx="166" cy="124" r="6.5" fill="#3F5FB5"/><circle cx="164" cy="122" r="2" fill="#98B0EC"/><circle cx="166" cy="125" r="1.6" fill="#22377A"/><circle cx="140" cy="116" r="6.5" fill="#3F5FB5"/><circle cx="138" cy="114" r="2" fill="#98B0EC"/><circle cx="140" cy="117" r="1.6" fill="#22377A"/></g><path d="M124 96 C118 82 130 74 136 84 C132 94 128 98 124 96Z" fill="#5FB84F"/><path d="M124 96 C130 88 142 88 146 96 C140 102 130 102 124 96Z" fill="#8FDC63"/></svg>