<svg xmlns="http://www.w3.org/2000/svg" viewBox="0 0 256 256" xmlns:c2pa="http://c2pa.org/manifest"><metadata><c2pa:manifest>AAAWgmp1bWIAAAAeanVtZGMycGEAEQAQgAAAqgA4m3EDYzJwYQAAABZcanVtYgAAAEdqdW1kYzJtYQARABCAAACqADibcQN1cm46YzJwYTo1MjlmNzc3Zi04MWI3LTQ3YjctOTlkOC1kM2I3NzEyMDQwMDIAAAADl2p1bWIAAAApanVtZGMyYXMAEQAQgAAAqgA4m3EDYzJwYS5hc3NlcnRpb25zAAAAALxqdW1iAAAARGp1bWRjYm9yABEAEIAAAKoAOJtxE2MycGEuaW5ncmVkaWVudC52MwAAAAAYYzJzaKquT0b20aCMp/cgYE+K6w8AAABwY2JvcqNpZGM6Zm9ybWF0bWltYWdlL3N2Zyt4bWxqaW5zdGFuY2VJRHgseG1wOmlpZDo1NzY1Yzk4OC02M2M2LTQ1NjYtOGZlMC1lOGI0YTlkNzVlMWZscmVsYXRpb25zaGlwaHBhcmVudE9mAAAB4mp1bWIAAABBanVtZGNib3IAEQAQgAAAqgA4m3ETYzJwYS5hY3Rpb25zLnYyAAAAABhjMnNoj+B+wHF0qOSFJIS00fzFFwAAAZljYm9yomdhY3Rpb25zgqJmYWN0aW9ua2MycGEub3BlbmVkanBhcmFtZXRlcnOha2luZ3JlZGllbnRzgaJjdXJseC1zZWxmI2p1bWJmPWMycGEuYXNzZXJ0aW9ucy9jMnBhLmluZ3JlZGllbnQudjNkaGFzaFgghE/KVKnXq8gujdVRysijhtipIekdJNGo0Er0Xm8axnukZmFjdGlvbngdY29tLmFudGhyb3BpYy5jbGF1ZGUucHJvdmlkZWRqcGFyYW1ldGVyc6F4H2NvbS5hbnRocm9waWMub3JpZ2luLWNvbmZpZGVuY2VndW5rbm93bmtkZXNjcmlwdGlvbnhmQ2xhdWRlIHByb3ZpZGVkIHRoaXMgZmlsZSBhdCB0aGUgcmVxdWVzdCBvZiBhIHVzZXIgYW5kIG1heSBoYXZlIGNyZWF0ZWQgb3IgbW9kaWZpZWQgdGhlIGZpbGUgY29udGVudHMubXNvZnR3YXJlQWdlbnShZG5hbWVmQ2xhdWRlcmFsbEFjdGlvbnNJbmNsdWRlZPUAAADIanVtYgAAAEBqdW1kY2JvcgARABCAAACqADibcRNjMnBhLmhhc2guZGF0YQAAAAAYYzJzaI/P0n8j4LEndPqU/m3gIIMAAACAY2JvcqVjYWxnZnNoYTI1NmNwYWRNAAAAAAAAAAAAAAAAAGRoYXNoWCBi6hX+6oIjXHfPTSWpH4dIzNAjeDk0SxnV/l+aJwIInGRuYW1lbmp1bWJmIG1hbmlmZXN0amV4Y2x1c2lvbnOBomVzdGFydBh9Zmxlbmd0aBkeBAAAAj5qdW1iAAAAJ2p1bWRjMmNsABEAEIAAAKoAOJtxA2MycGEuY2xhaW0udjIAAAACD2Nib3KlY2FsZ2ZzaGEyNTZpc2lnbmF0dXJleE1zZWxmI2p1bWJmPS9jMnBhL3VybjpjMnBhOjUyOWY3NzdmLTgxYjctNDdiNy05OWQ4LWQzYjc3MTIwNDAwMi9jMnBhLnNpZ25hdHVyZWppbnN0YW5jZUlEeCx4bXA6aWlkOmY4Nzg4NGRlLTQ0OWMtNDMyMS04ZTMzLTdlMDAxNDliODU0MnJjcmVhdGVkX2Fzc2VydGlvbnODomN1cmx4LXNlbGYjanVtYmY9YzJwYS5hc3NlcnRpb25zL2MycGEuaW5ncmVkaWVudC52M2RoYXNoWCCET8pUqderyC6N1VHKyKOG2Kkh6R0k0ajQSvRebxrGe6JjdXJseCpzZWxmI2p1bWJmPWMycGEuYXNzZXJ0aW9ucy9jMnBhLmFjdGlvbnMudjJkaGFzaFggGlZdrM+M891M11o9ADazINjX+Ul4htDmbHJq4HeDC3aiY3VybHgpc2VsZiNqdW1iZj1jMnBhLmFzc2VydGlvbnMvYzJwYS5oYXNoLmRhdGFkaGFzaFgg8uo0I9viNcdC5JQTMtwdD03T6zYaIXDvMl+UlnenkA10Y2xhaW1fZ2VuZXJhdG9yX2luZm+jZG5hbWVvQW50aHJvcGljIEZpbGVzZ3ZlcnNpb25lMS4wLjBrc3BlY1ZlcnNpb25lMi40LjAAABA4anVtYgAAAChqdW1kYzJjcwARABCAAACqADibcQNjMnBhLnNpZ25hdHVyZQAAABAIY2JvctKEWQISogEmGCFZAgowggIGMIIBjaADAgECAhRA5aAK7sI50L64g/oGQgU9Z1UTADAKBggqhkjOPQQDAzBJMRcwFQYDVQQKEw5BbnRocm9waWMsIFBCQzEuMCwGA1UEAxMlQW50aHJvcGljIENvbnRlbnQgQ3JlZGVudGlhbHMgUm9vdCBDQTAeFw0yNjA4MDcxODQzNTZaFw0yODA4MDYxOTQzNTZaMEQxFzAVBgNVBAoTDkFudGhyb3BpYywgUEJDMSkwJwYDVQQDEyBBbnRocm9waWMgQ2xhdWRlIENvbnRlbnQgU2lnbmluZzBZMBMGByqGSM49AgEGCCqGSM49AwEHA0IABJh6CmvLUBgFFNU0vUKlOVtE6djd17L5SuwX0LemFisBM3dkd/3cyjxFA3Qo5S46fX0/ihY0VZ7mfb9KF703t5OjWDBWMA4GA1UdDwEB/wQEAwIHgDAVBgNVHSUEDjAMBgorBgEEAYPoXgIBMAwGA1UdEwEB/wQCMAAwHwYDVR0jBBgwFoAUzlHiBIFOZFsj+OPEz5o+nMHXXMIwCgYIKoZIzj0EAwMDZwAwZAIwMXMdFJ4BetLLVY7ORuE9noqbbAZOZn/aArXyTwFAZfKrPzxF2vPoJNf1+UCdg1XGAjBwX1zd9WGqYkqmL5SFqw1QySjr1zJfpJM9+1rdDwSPLMOPOjKuiXjoU/pUUeG9RwmhY3BhZFkNngAAAAAAAAAAAAAAAAAAAAAAAAAAAAAAAAAAAAAAAAAAAAAAAAAAAAAAAAAAAAAAAAAAAAAAAAAAAAAAAAAAAAAAAAAAAAAAAAAAAAAAAAAAAAAAAAAAAAAAAAAAAAAAAAAAAAAAAAAAAAAAAAAAAAAAAAAAAAAAAAAAAAAAAAAAAAAAAAAAAAAAAAAAAAAAAAAAAAAAAAAAAAAAAAAAAAAAAAAAAAAAAAAAAAAAAAAAAAAAAAAAAAAAAAAAAAAAAAAAAAAAAAAAAAAAAAAAAAAAAAAAAAAAAAAAAAAAAAAAAAAAAAAAAAAAAAAAAAAAAAAAAAAAAAAAAAAAAAAAAAAAAAAAAAAAAAAAAAAAAAAAAAAAAAAAAAAAAAAAAAAAAAAAAAAAAAAAAAAAAAAAAAAAAAAAAAAAAAAAAAAAAAAAAAAAAAAAAAAAAAAAAAAAAAAAAAAAAAAAAAAAAAAAAAAAAAAAAAAAAAAAAAAAAAAAAAAAAAAAAAAAAAAAAAAAAAAAAAAAAAAAAAAAAAAAAAAAAAAAAAAAAAAAAAAAAAAAAAAAAAAAAAAAAAAAAAAAAAAAAAAAAAAAAAAAAAAAAAAAAAAAAAAAAAAAAAAAAAAAAAAAAAAAAAAAAAAAAAAAAAAAAAAAAAAAAAAAAAAAAAAAAAAAAAAAAAAAAAAAAAAAAAAAAAAAAAAAAAAAAAAAAAAAAAAAAAAAAAAAAAAAAAAAAAAAAAAAAAAAAAAAAAAAAAAAAAAAAAAAAAAAAAAAAAAAAAAAAAAAAAAAAAAAAAAAAAAAAAAAAAAAAAAAAAAAAAAAAAAAAAAAAAAAAAAAAAAAAAAAAAAAAAAAAAAAAAAAAAAAAAAAAAAAAAAAAAAAAAAAAAAAAAAAAAAAAAAAAAAAAAAAAAAAAAAAAAAAAAAAAAAAAAAAAAAAAAAAAAAAAAAAAAAAAAAAAAAAAAAAAAAAAAAAAAAAAAAAAAAAAAAAAAAAAAAAAAAAAAAAAAAAAAAAAAAAAAAAAAAAAAAAAAAAAAAAAAAAAAAAAAAAAAAAAAAAAAAAAAAAAAAAAAAAAAAAAAAAAAAAAAAAAAAAAAAAAAAAAAAAAAAAAAAAAAAAAAAAAAAAAAAAAAAAAAAAAAAAAAAAAAAAAAAAAAAAAAAAAAAAAAAAAAAAAAAAAAAAAAAAAAAAAAAAAAAAAAAAAAAAAAAAAAAAAAAAAAAAAAAAAAAAAAAAAAAAAAAAAAAAAAAAAAAAAAAAAAAAAAAAAAAAAAAAAAAAAAAAAAAAAAAAAAAAAAAAAAAAAAAAAAAAAAAAAAAAAAAAAAAAAAAAAAAAAAAAAAAAAAAAAAAAAAAAAAAAAAAAAAAAAAAAAAAAAAAAAAAAAAAAAAAAAAAAAAAAAAAAAAAAAAAAAAAAAAAAAAAAAAAAAAAAAAAAAAAAAAAAAAAAAAAAAAAAAAAAAAAAAAAAAAAAAAAAAAAAAAAAAAAAAAAAAAAAAAAAAAAAAAAAAAAAAAAAAAAAAAAAAAAAAAAAAAAAAAAAAAAAAAAAAAAAAAAAAAAAAAAAAAAAAAAAAAAAAAAAAAAAAAAAAAAAAAAAAAAAAAAAAAAAAAAAAAAAAAAAAAAAAAAAAAAAAAAAAAAAAAAAAAAAAAAAAAAAAAAAAAAAAAAAAAAAAAAAAAAAAAAAAAAAAAAAAAAAAAAAAAAAAAAAAAAAAAAAAAAAAAAAAAAAAAAAAAAAAAAAAAAAAAAAAAAAAAAAAAAAAAAAAAAAAAAAAAAAAAAAAAAAAAAAAAAAAAAAAAAAAAAAAAAAAAAAAAAAAAAAAAAAAAAAAAAAAAAAAAAAAAAAAAAAAAAAAAAAAAAAAAAAAAAAAAAAAAAAAAAAAAAAAAAAAAAAAAAAAAAAAAAAAAAAAAAAAAAAAAAAAAAAAAAAAAAAAAAAAAAAAAAAAAAAAAAAAAAAAAAAAAAAAAAAAAAAAAAAAAAAAAAAAAAAAAAAAAAAAAAAAAAAAAAAAAAAAAAAAAAAAAAAAAAAAAAAAAAAAAAAAAAAAAAAAAAAAAAAAAAAAAAAAAAAAAAAAAAAAAAAAAAAAAAAAAAAAAAAAAAAAAAAAAAAAAAAAAAAAAAAAAAAAAAAAAAAAAAAAAAAAAAAAAAAAAAAAAAAAAAAAAAAAAAAAAAAAAAAAAAAAAAAAAAAAAAAAAAAAAAAAAAAAAAAAAAAAAAAAAAAAAAAAAAAAAAAAAAAAAAAAAAAAAAAAAAAAAAAAAAAAAAAAAAAAAAAAAAAAAAAAAAAAAAAAAAAAAAAAAAAAAAAAAAAAAAAAAAAAAAAAAAAAAAAAAAAAAAAAAAAAAAAAAAAAAAAAAAAAAAAAAAAAAAAAAAAAAAAAAAAAAAAAAAAAAAAAAAAAAAAAAAAAAAAAAAAAAAAAAAAAAAAAAAAAAAAAAAAAAAAAAAAAAAAAAAAAAAAAAAAAAAAAAAAAAAAAAAAAAAAAAAAAAAAAAAAAAAAAAAAAAAAAAAAAAAAAAAAAAAAAAAAAAAAAAAAAAAAAAAAAAAAAAAAAAAAAAAAAAAAAAAAAAAAAAAAAAAAAAAAAAAAAAAAAAAAAAAAAAAAAAAAAAAAAAAAAAAAAAAAAAAAAAAAAAAAAAAAAAAAAAAAAAAAAAAAAAAAAAAAAAAAAAAAAAAAAAAAAAAAAAAAAAAAAAAAAAAAAAAAAAAAAAAAAAAAAAAAAAAAAAAAAAAAAAAAAAAAAAAAAAAAAAAAAAAAAAAAAAAAAAAAAAAAAAAAAAAAAAAAAAAAAAAAAAAAAAAAAAAAAAAAAAAAAAAAAAAAAAAAAAAAAAAAAAAAAAAAAAAAAAAAAAAAAAAAAAAAAAAAAAAAAAAAAAAAAAAAAAAAAAAAAAAAAAAAAAAAAAAAAAAAAAAAAAAAAAAAAAAAAAAAAAAAAAAAAAAAAAAAAAAAAAAAAAAAAAAAAAAAAAAAAAAAAAAAAAAAAAAAAAAAAAAAAAAAAAAAAAAAAAAAAAAAAAAAAAAAAAAAAAAAAAAAAAAAAAAAAAAAAAAAAAAAAAAAAAAAAAAAAAAAAAAAAAAAAAAAAAAAAAAAAAAAAAAAAAAAAAAAAAAAAAAAAAAAAAAAAAAAAAAAAAAAAAAAAAAAAAAAAAAAAAAAAAAAAAAAAAAAAAAAAAAAAAAAAAAAAAAAAAAAAAAAAAAAAAAAAAAAAAAAAAAAAAAAAAAAAAAAAAAAAAAAAAAAAAAAAAAAAAAAAAAAAAAAAAAAAAAAAAAAAAAAAAAAAAAAAAAAAAAAAAAAAAAAAAAAAAAAAAAAAAAAAAAAAAAAAAAAAAAAAAAAAAAAAAAAAAAAAAAAAAAAAAAAAAAAAAAAAAAAAAAAAAAAAAAAAAAAAAAAAAAAAAAAAAAAAAAAAAAAAAAAAAAAAAAAAAAAAAAAAAAAAAAAAAAAAAAAAAAAAAAAAAAAAAAAAAAAAAAAAAAAAAAAAAAAAAAAAAAAAAAAAAAAAAAAAAAAAAAAAAAAAAAAAAAAAAAAAAAAAAAAAAAAAAAAAAAAAAAAAAAAAAAAAAAAAAAAAAAAAAAAAAAAAAAAAAAAAAAAAAAAAAAAAAAAAAAAAAAAAAAAAAAAAAAAAAAAAAAAAAAAAAAAAAAAAAAAAAAAAAAAAAAAAAAAAAAAAAAAAAAAAAAAAAAAAAAAAAAAAAAAAAAAAAAAAAAAAAAAAAAAAAAAAAAAAAAAAAAAAAAAAAAAAAAAAAAAAAAAAAAAAAAAAAAAAAAAAAAAAAAAAAAAAAAAAAAAAAAAAAAAAAAAAAAAAAAAAAAAAAAAAAAAAAAAAAAAAAAAAAAAAAAAAAAAAAAAAAAAAAAAAAAAAAAAAAAAAAAAAAAAAAAAAAAAAAAAAAAAAAAAAAAAAAAAAAAAAAAAAAAAAAAAAAAAAAAAAAAAAAAAAAAAAAAAAAAAAAAAAAAAAAAAAAAAAAAAAAAAAAAAAAAAAAAAAAAAAAAAAAAAAAAAAAAAAAAAAAAAAAAAAAAAAAAAAAAAAAAAAAAAAAAAAAAAAAAAAAAAAAAAAAAAAAAAAAAAAAAAAAAAAAAAAAAAAAAAAAAAAAAAAAAAAAAAAAAAAAAAAAAAAAAAAAAAAAAAAAAAAAAAAAAAAAAAAAAAAAAAAAAAAAAAAAAAAAAAAAAAAAAAAAAAAAAAAAAAAAAAAAAAAAAAAAAAAAAAAAAAAAAAAAAAAAAAAAAAAAAAAAAAAAAAAAAAAAAAAAAAAAAAAAAAAAAAAAAAAAAAAAAAAAAAAAAAAAAAAAAAAAAAAAAAAAAAAAAAAAAAAAAAAAAAAAAAAAAAAAAAAAAAAAAAAAAAAAAAAAAAAAAAAAAAAAAAAAAAAAAAAAAAAAAAAAAAAAAAAAAAAAAAAAAAAAAAAAAAAAAAAAAAAAAAAAAAAAAAAAAAAAAAAAAAAAAAAAAAAAAAAAAAAAAAAAAAAAAAAAAAAAAAAAAAAAAAAAAAAAAAAAAAAAAAAAAAAAAAAAAAAAAAAAAAAAAAAAAAAAAAAAAAAAAAAAAAAAAAAAAAAAAAAAAAAAAAAAAAAAAAAAAAAAAAAAAAAAAAAAAAAAAAAAAAAAAAAAAAAAAAAAAAAAAAAAAAAAAAAAAAAAAAAAAAAAAAAAAAAAAAAAAAAAAAAAAAAPZYQA5hmUpw1iQEcivEtUMQsIh4WuXWaA731kLw/kGHiTrSLNaDMcMJ5BNmzS65l+KPwFvZH34g/8u6/B9YRy/+ptc=</c2pa:manifest></metadata><ellipse cx="128" cy="198" rx="112" ry="34" fill="#000" opacity=".10"/><ellipse cx="128" cy="191" rx="112" ry="36" fill="#B9CCC1"/><ellipse cx="128" cy="186" rx="112" ry="36" fill="#E9F0EC"/><ellipse cx="128" cy="187" rx="98" ry="27" fill="#FAFBFB" stroke="#D3E1D9" stroke-width="2"/><ellipse cx="120" cy="176" rx="76" ry="24" fill="#B84418"/><ellipse cx="120" cy="172" rx="74" ry="22" fill="#E8622A"/><ellipse cx="96" cy="166" rx="28" ry="6" fill="#F49A5C" opacity=".8"/><ellipse cx="196" cy="175.5" rx="32" ry="14" fill="#DCE6E0"/><path d="M164 175.5 Q167.2 149.6 196 149.6 Q224.8 149.6 228 175.5 Z" fill="#FFFFFF"/><path d="M205.6 152.4 Q226.4 158 228 175.5 Q215.2 179.0 202.4 163.6Z" fill="#DCE6E0" opacity=".7"/><ellipse cx="197.1" cy="167.6" rx="4.2" ry="1.7" fill="#fff" stroke="#DCE6E0" stroke-width=".8" transform="rotate(93 197.1 167.6)"/><ellipse cx="185.2" cy="167.0" rx="4.2" ry="1.7" fill="#fff" stroke="#DCE6E0" stroke-width=".8" transform="rotate(138 185.2 167.0)"/><ellipse cx="204.3" cy="155.9" rx="4.2" ry="1.7" fill="#fff" stroke="#DCE6E0" stroke-width=".8" transform="rotate(6 204.3 155.9)"/><ellipse cx="183.1" cy="167.8" rx="4.2" ry="1.7" fill="#fff" stroke="#DCE6E0" stroke-width=".8" transform="rotate(107 183.1 167.8)"/><ellipse cx="183.3" cy="162.5" rx="4.2" ry="1.7" fill="#fff" stroke="#DCE6E0" stroke-width=".8" transform="rotate(81 183.3 162.5)"/><ellipse cx="203.2" cy="165.6" rx="4.2" ry="1.7" fill="#fff" stroke="#DCE6E0" stroke-width=".8" transform="rotate(102 203.2 165.6)"/><ellipse cx="177.4" cy="163.3" rx="4.2" ry="1.7" fill="#fff" stroke="#DCE6E0" stroke-width=".8" transform="rotate(35 177.4 163.3)"/><ellipse cx="212.0" cy="168.8" rx="4.2" ry="1.7" fill="#fff" stroke="#DCE6E0" stroke-width=".8" transform="rotate(38 212.0 168.8)"/><ellipse cx="215.6" cy="163.0" rx="4.2" ry="1.7" fill="#fff" stroke="#DCE6E0" stroke-width=".8" transform="rotate(53 215.6 163.0)"/><ellipse cx="187.3" cy="156.2" rx="4.2" ry="1.7" fill="#fff" stroke="#DCE6E0" stroke-width=".8" transform="rotate(163 187.3 156.2)"/><ellipse cx="173.9" cy="161.0" rx="4.2" ry="1.7" fill="#fff" stroke="#DCE6E0" stroke-width=".8" transform="rotate(129 173.9 161.0)"/><ellipse cx="218.5" cy="162.0" rx="4.2" ry="1.7" fill="#fff" stroke="#DCE6E0" stroke-width=".8" transform="rotate(153 218.5 162.0)"/><ellipse cx="177.7" cy="167.7" rx="4.2" ry="1.7" fill="#fff" stroke="#DCE6E0" stroke-width=".8" transform="rotate(129 177.7 167.7)"/><ellipse cx="217.5" cy="154.4" rx="4.2" ry="1.7" fill="#fff" stroke="#DCE6E0" stroke-width=".8" transform="rotate(95 217.5 154.4)"/><ellipse cx="199.7" cy="169.1" rx="4.2" ry="1.7" fill="#fff" stroke="#DCE6E0" stroke-width=".8" transform="rotate(90 199.7 169.1)"/><ellipse cx="173.0" cy="162.1" rx="4.2" ry="1.7" fill="#fff" stroke="#DCE6E0" stroke-width=".8" transform="rotate(148 173.0 162.1)"/><ellipse cx="210.0" cy="168.7" rx="4.2" ry="1.7" fill="#fff" stroke="#DCE6E0" stroke-width=".8" transform="rotate(61 210.0 168.7)"/><ellipse cx="176.4" cy="157.7" rx="4.2" ry="1.7" fill="#fff" stroke="#DCE6E0" stroke-width=".8" transform="rotate(63 176.4 157.7)"/><ellipse cx="197.4" cy="160.1" rx="4.2" ry="1.7" fill="#fff" stroke="#DCE6E0" stroke-width=".8" transform="rotate(68 197.4 160.1)"/><ellipse cx="173.7" cy="158.7" rx="4.2" ry="1.7" fill="#fff" stroke="#DCE6E0" stroke-width=".8" transform="rotate(154 173.7 158.7)"/><g transform="translate(112,158) rotate(-10) scale(0.95)"><rect x="14" y="-6" width="34" height="12" rx="6" fill="#FFF3DD"/><circle cx="50" cy="-8" r="8" fill="#FFF3DD"/><circle cx="50" cy="8" r="8" fill="#FFF3DD"/><ellipse cx="0" cy="0" rx="30" ry="22" fill="#B8642A"/><ellipse cx="-3" cy="-3" rx="27" ry="19" fill="#DB8940"/><ellipse cx="-11" cy="-11" rx="11" ry="5" fill="#F2B673" opacity=".9" transform="rotate(-18 -11 -11)"/></g><circle cx="70" cy="172" r="12" fill="#EFC96B"/><path d="M60.4 175.6 A12 12 0 0 0 77.2 181.6 A12 12 0 0 0 82 170.8 A13.200000000000001 13.200000000000001 0 0 1 60.4 175.6Z" fill="#D9A93F"/><circle cx="66.4" cy="168.4" r="3.5999999999999996" fill="#FFF0B8" opacity=".9"/><circle cx="73.6" cy="173.2" r="1.2000000000000002" fill="#B98A2A"/><circle cx="150" cy="178" r="13" fill="#EFC96B"/><path d="M139.6 181.9 A13 13 0 0 0 157.8 188.4 A13 13 0 0 0 163 176.7 A14.3 14.3 0 0 1 139.6 181.9Z" fill="#D9A93F"/><circle cx="146.1" cy="174.1" r="3.9" fill="#FFF0B8" opacity=".9"/><circle cx="153.9" cy="179.3" r="1.3" fill="#B98A2A"/><rect x="84" y="150" width="18" height="6" rx="3" fill="#4FA84F" transform="rotate(10 84 150)"/><rect x="140" y="150" width="18" height="6" rx="3" fill="#4FA84F" transform="rotate(-20 140 150)"/><rect x="60" y="156" width="18" height="6" rx="3" fill="#4FA84F" transform="rotate(30 60 156)"/><rect x="154" y="164" width="18" height="6" rx="3" fill="#4FA84F" transform="rotate(60 154 164)"/><rect x="96" y="182" width="18" height="6" rx="3" fill="#E8452F" transform="rotate(10 96 182)"/><rect x="128" y="148" width="18" height="6" rx="3" fill="#E8452F" transform="rotate(-10 128 148)"/><rect x="172" y="168" width="18" height="6" rx="3" fill="#E8452F" transform="rotate(20 172 168)"/><circle cx="102" cy="146" r="8" fill="none" stroke="#F6E6C8" stroke-width="4"/><circle cx="166" cy="158" r="8" fill="none" stroke="#F6E6C8" stroke-width="4"/><g transform="translate(118,182) rotate(-20)"><path d="M0 0 q6 -9 13 -1 q-6 5 -13 1z" fill="#6CC04A"/><path d="M5 -2 q3 -10 11 -6 q-3 7 -11 6z" fill="#8FDC63"/><path d="M0 0 q-6 -7 -12 0 q6 4 12 0z" fill="#4FA84F"/></g><g transform="translate(148,160) rotate(10)"><path d="M0 0 q6 -9 13 -1 q-6 5 -13 1z" fill="#6CC04A"/><path d="M5 -2 q3 -10 11 -6 q-3 7 -11 6z" fill="#8FDC63"/><path d="M0 0 q-6 -7 -12 0 q6 4 12 0z" fill="#4FA84F"/></g><path d="M96 112 q-9 -14 0 -28 q9 -14 0 -28" fill="none" stroke="#A9BDB1" stroke-width="6" stroke-linecap="round" opacity="0.75"/><path d="M122 112 q-9 -14 0 -28 q9 -14 0 -28" fill="none" stroke="#A9BDB1" stroke-width="6" stroke-linecap="round" opacity="0.75"/><path d="M148 112 q-9 -14 0 -28 q9 -14 0 -28" fill="none" stroke="#A9BDB1" stroke-width="6" stroke-linecap="round" opacity="0.75"/></svg>